<svg width="253" height="151" viewBox="0 0 253 151" fill="none" xmlns="http://www.w3.org/2000/svg">
<path d="M81 85.5297C91.7413 85.5297 102.043 82.0924 109.638 75.974C117.233 69.8556 121.5 61.5572 121.5 52.9045C121.5 44.2517 117.233 35.9534 109.638 29.835C102.043 23.7166 91.7413 20.2793 81 20.2793C70.2587 20.2793 59.9574 23.7166 52.3622 29.835C44.767 35.9534 40.5 44.2517 40.5 52.9045C40.5 61.5572 44.767 69.8556 52.3622 75.974C59.9574 82.0924 70.2587 85.5297 81 85.5297ZM108 52.9045C108 58.673 105.155 64.2052 100.092 68.2842C95.0284 72.3631 88.1608 74.6546 81 74.6546C73.8392 74.6546 66.9716 72.3631 61.9081 68.2842C56.8446 64.2052 54 58.673 54 52.9045C54 47.136 56.8446 41.6038 61.9081 37.5248C66.9716 33.4459 73.8392 31.1543 81 31.1543C88.1608 31.1543 95.0284 33.4459 100.092 37.5248C105.155 41.6038 108 47.136 108 52.9045ZM162 139.905C162 150.78 148.5 150.78 148.5 150.78H13.5C13.5 150.78 0 150.78 0 139.905C0 129.03 13.5 96.4048 81 96.4048C148.5 96.4048 162 129.03 162 139.905ZM148.5 139.862C148.486 137.186 146.421 129.139 137.268 121.765C128.466 114.675 111.901 107.28 81 107.28C50.085 107.28 33.534 114.675 24.732 121.765C15.579 129.139 13.527 137.186 13.5 139.862H148.5Z" fill="#F18701"/>
<path d="M238 8.51111C239.989 8.51111 241.897 9.40782 243.303 11.004C244.71 12.6001 245.5 14.7649 245.5 17.0222V85.1111C245.5 87.3684 244.71 89.5332 243.303 91.1294C241.897 92.7255 239.989 93.6222 238 93.6222H219.25C216.921 93.6222 214.625 94.2375 212.542 95.4193C210.459 96.6011 208.647 98.317 207.25 100.431L193 121.99L178.75 100.431C177.353 98.317 175.541 96.6011 173.458 95.4193C171.375 94.2375 169.079 93.6222 166.75 93.6222H148C146.011 93.6222 144.103 92.7255 142.697 91.1294C141.29 89.5332 140.5 87.3684 140.5 85.1111V17.0222C140.5 14.7649 141.29 12.6001 142.697 11.004C144.103 9.40782 146.011 8.51111 148 8.51111H238ZM148 0C144.022 0 140.206 1.79341 137.393 4.98569C134.58 8.17798 133 12.5076 133 17.0222V85.1111C133 89.6257 134.58 93.9554 137.393 97.1477C140.206 100.34 144.022 102.133 148 102.133H166.75C167.914 102.133 169.063 102.441 170.104 103.032C171.146 103.623 172.051 104.481 172.75 105.538L187 127.096C187.699 128.153 188.604 129.011 189.646 129.602C190.687 130.193 191.836 130.501 193 130.501C194.164 130.501 195.313 130.193 196.354 129.602C197.396 129.011 198.301 128.153 199 127.096L213.25 105.538C213.949 104.481 214.854 103.623 215.896 103.032C216.937 102.441 218.086 102.133 219.25 102.133H238C241.978 102.133 245.794 100.34 248.607 97.1477C251.42 93.9554 253 89.6257 253 85.1111V17.0222C253 12.5076 251.42 8.17798 248.607 4.98569C245.794 1.79341 241.978 0 238 0L148 0Z" fill="#F18701"/>
<path d="M170.5 51.0667C170.5 53.324 169.71 55.4888 168.303 57.0849C166.897 58.6811 164.989 59.5778 163 59.5778C161.011 59.5778 159.103 58.6811 157.697 57.0849C156.29 55.4888 155.5 53.324 155.5 51.0667C155.5 48.8094 156.29 46.6446 157.697 45.0484C159.103 43.4523 161.011 42.5556 163 42.5556C164.989 42.5556 166.897 43.4523 168.303 45.0484C169.71 46.6446 170.5 48.8094 170.5 51.0667ZM200.5 51.0667C200.5 53.324 199.71 55.4888 198.303 57.0849C196.897 58.6811 194.989 59.5778 193 59.5778C191.011 59.5778 189.103 58.6811 187.697 57.0849C186.29 55.4888 185.5 53.324 185.5 51.0667C185.5 48.8094 186.29 46.6446 187.697 45.0484C189.103 43.4523 191.011 42.5556 193 42.5556C194.989 42.5556 196.897 43.4523 198.303 45.0484C199.71 46.6446 200.5 48.8094 200.5 51.0667ZM230.5 51.0667C230.5 53.324 229.71 55.4888 228.303 57.0849C226.897 58.6811 224.989 59.5778 223 59.5778C221.011 59.5778 219.103 58.6811 217.697 57.0849C216.29 55.4888 215.5 53.324 215.5 51.0667C215.5 48.8094 216.29 46.6446 217.697 45.0484C219.103 43.4523 221.011 42.5556 223 42.5556C224.989 42.5556 226.897 43.4523 228.303 45.0484C229.71 46.6446 230.5 48.8094 230.5 51.0667Z" fill="#F18701"/>
</svg>
