<svg width="162" height="131" viewBox="0 0 162 131" fill="none" xmlns="http://www.w3.org/2000/svg">
<path d="M136.607 92.2778L116.901 88.4802L94.9352 70.771L111.859 57.1446C115.79 58.2568 119.875 58.8002 123.942 58.7999C133.455 58.7994 142.852 55.8243 149.841 50.2003C160.662 41.4925 163.594 28.1423 157.139 16.9807L154.145 11.8053L136.332 26.1329L128.06 19.4762L145.878 5.14493L139.43 2.72898C125.569 -2.46376 108.989 -0.104128 98.1726 8.5999C88.1976 16.6276 84.9265 28.6019 89.5348 39.1686L82.8769 44.5295L33.8105 4.97545C30.1461 2.01129 25.266 0.376286 20.0688 0.371482C20.0612 0.371482 20.0542 0.371482 20.0466 0.371482C14.8504 0.371482 9.96605 2.00062 6.29036 4.96077C2.6107 7.92732 0.58598 11.8699 0.588629 16.0626C0.591277 20.2521 2.61766 24.1912 6.29367 27.1529L55.3455 66.6971L48.6731 72.0695C35.5462 68.3551 20.667 70.9856 10.6904 79.0141C-0.130089 87.7219 -3.06289 101.072 3.39331 112.233L6.3867 117.409L24.1994 103.082L32.4711 109.738L14.6531 124.069L21.102 126.485C26.0062 128.322 31.2495 129.214 36.4589 129.214C45.9727 129.214 55.37 126.239 62.3589 120.614C72.3342 112.587 75.6053 100.612 70.9971 90.0455L87.908 76.429L109.879 94.1418L114.589 110.028L139.983 130.501L162 112.75L136.607 92.2778ZM99.8759 38.4328C95.1812 30.3141 97.3168 20.6022 105.189 14.2666C111.241 9.39685 119.768 7.25314 127.975 8.23479L114.001 19.4746L136.33 37.4442L150.314 26.1967C151.538 32.7991 148.876 39.6632 142.825 44.533C134.945 50.8742 122.867 52.5925 112.768 48.8087L109.621 47.6298L98.1656 56.8535L89.8999 50.1904L101.345 40.9747L99.8759 38.4328ZM10.5202 16.0583C10.5189 14.0059 11.5107 12.0754 13.311 10.6238C15.1096 9.1756 17.5012 8.37811 20.047 8.37811C22.5997 8.38051 24.9856 9.17933 26.7822 10.6323L91.1384 62.5117L77.6609 73.3634L13.3153 21.4902C11.5144 20.0391 10.5216 18.11 10.5202 16.0583ZM55.3426 114.947C49.2909 119.817 40.7636 121.961 32.5571 120.979L46.5312 109.74L24.2013 91.7699L10.2176 103.017C8.99341 96.4153 11.6554 89.5512 17.7071 84.6812C25.5865 78.3402 37.6656 76.6217 47.7641 80.4052L50.9107 81.5841L62.3682 72.3588L70.6336 79.0222L59.1864 88.2392L60.6563 90.7813C65.351 98.9001 63.2153 108.612 55.3426 114.947ZM123.596 105.966L121.092 97.5205L131.569 99.5393L147.955 112.75L139.983 119.178L123.596 105.966Z" fill="#F18701"/>
</svg>