<svg width="162" height="131" viewBox="0 0 162 131" fill="none" xmlns="http://www.w3.org/2000/svg">
<path d="M148.358 58.2071C145.728 57.4917 142.958 57.8145 140.302 57.4263C136.587 56.883 132.846 55.6475 129.43 53.0728C128.848 52.6343 128.3 53.0273 127.982 53.6886C127.754 53.9906 127.584 54.4353 127.542 55.026C127.247 59.1386 126.646 63.6879 128.615 66.8989C130.396 69.8031 133.03 71.1485 135.257 72.7817C140.151 76.3738 144.606 83.1484 150.138 83.787C150.778 83.8605 151.236 82.8668 151.268 81.8907C151.46 76.1022 151.687 70.069 151.408 64.2829C151.253 61.0975 150.3 58.7347 148.358 58.2071ZM149.144 64.4052C148.829 63.6358 148.521 62.8578 148.208 62.085C148.696 62.406 149.027 63.0598 149.144 64.4052ZM149.228 66.2342C149.241 66.6386 149.251 67.0444 149.259 67.4507C148.67 65.6378 148.064 63.8406 147.494 62.0092C148.074 63.4172 148.628 64.8537 149.228 66.2342ZM129.48 61.6982C129.439 61.0724 129.437 60.439 129.455 59.8028C129.806 61.4422 130.164 63.129 130.595 64.738C130.007 63.9956 129.571 63.092 129.48 61.6982ZM131.487 65.6885C130.692 63.1361 130.169 60.2489 129.583 57.6439C129.594 57.5197 129.603 57.3959 129.614 57.2717C129.871 57.4395 130.129 57.5969 130.388 57.7524C130.982 60.1328 131.451 62.6051 132.035 64.9921C132.153 65.4743 132.276 65.9877 132.41 66.5016C132.099 66.2432 131.79 65.9772 131.487 65.6885ZM133.15 67.0909C132.66 65.6032 132.343 63.7747 132.045 62.4676C131.719 61.035 131.418 59.5829 131.085 58.154C131.405 58.3322 131.726 58.5005 132.049 58.6617C132.811 61.8167 133.568 64.984 134.449 68.0504C134.014 67.7361 133.58 67.4208 133.15 67.0909ZM135.247 68.6326C134.309 65.4989 133.519 62.2425 132.734 58.9888C133.102 59.1581 133.471 59.3141 133.842 59.4634C134.531 62.7635 135.176 66.0977 136.066 69.2489C135.794 69.0384 135.52 68.8345 135.247 68.6326ZM136.991 69.9974C136.96 69.9699 136.927 69.9467 136.895 69.9197C135.897 66.6661 135.209 63.1797 134.492 59.7175C134.749 59.8133 135.008 59.8939 135.267 59.9811C136.032 63.6206 136.884 67.2032 137.821 70.7266C137.546 70.4796 137.269 70.2368 136.991 69.9974ZM138.636 71.4666C137.63 67.7783 136.725 64.0198 135.913 60.2006C136.129 60.2674 136.347 60.3238 136.564 60.385C137.517 64.2383 138.285 68.433 139.434 72.2109C139.168 71.9625 138.903 71.7122 138.636 71.4666ZM140.336 73.0572C139.006 69.1768 138.199 64.6911 137.213 60.5675C137.389 60.6135 137.566 60.6533 137.743 60.6951C138.583 64.9651 139.514 69.1815 140.591 73.2956C140.506 73.2155 140.421 73.1368 140.336 73.0572ZM141.417 74.0693C140.252 69.7576 139.256 65.3282 138.365 60.8354C138.557 60.8762 138.747 60.9179 138.939 60.9558C139.694 64.9267 140.474 68.9583 141.476 72.7571C141.576 73.1354 141.695 73.7735 141.839 74.4656C141.699 74.3339 141.558 74.2006 141.417 74.0693ZM142.722 75.2621C142.658 74.9762 142.606 74.7387 142.581 74.6472C142.346 73.7654 142.122 72.8756 141.889 71.9914C140.965 68.4875 140.249 64.7475 139.553 61.0738C139.592 61.0809 139.63 61.0852 139.668 61.0918C140.641 66.0043 141.809 70.7906 143.032 75.5404C142.93 75.4465 142.826 75.356 142.722 75.2621ZM143.827 76.2463C142.542 71.2945 141.308 66.3101 140.283 61.1886C140.412 61.208 140.541 61.2303 140.67 61.2492C141.539 66.5755 142.875 71.6491 144.282 76.6374C144.129 76.5066 143.978 76.3762 143.827 76.2463ZM145.099 77.3201C143.624 72.1351 142.199 66.878 141.272 61.3398C141.384 61.3545 141.496 61.3644 141.608 61.3782C142.823 67.0416 144.466 72.3972 145.871 77.9274C145.612 77.7306 145.353 77.5292 145.099 77.3201ZM146.612 78.4593C145.192 72.7556 143.487 67.2587 142.222 61.4479C142.406 61.4678 142.59 61.4925 142.774 61.5105C144.279 67.1387 145.601 72.8983 146.905 78.666C146.807 78.601 146.71 78.5266 146.612 78.4593ZM147.604 79.0931C146.273 73.207 144.932 67.3222 143.407 61.5693C143.528 61.5797 143.65 61.5868 143.772 61.5967C145.233 67.5749 146.434 73.745 148.271 79.4331C148.047 79.3292 147.825 79.2173 147.604 79.0931ZM149.08 79.7559C149.058 79.7483 149.036 79.7384 149.014 79.7303C147.086 73.9949 145.866 67.7252 144.389 61.6427C144.524 61.6522 144.658 61.6641 144.793 61.6726C145.532 65.1647 146.364 68.5946 147.233 72.0028C147.765 74.0883 148.324 76.1486 148.892 78.2076C148.957 78.4446 149.021 78.8182 149.098 79.2121C149.092 79.3928 149.086 79.5748 149.08 79.7559ZM149.17 76.9683C148.672 75.163 148.189 73.3511 147.72 71.5245C146.89 68.2874 146.102 65.0224 145.396 61.7048C145.568 61.7143 145.74 61.7238 145.912 61.7328C147.242 65.7644 147.934 70.2847 149.239 74.3301C149.221 75.2104 149.197 76.0913 149.17 76.9683ZM149.277 72.3527C148.294 68.8838 147.634 65.1637 146.564 61.757C146.64 61.7589 146.71 61.7627 146.783 61.7655C147.58 64.3929 148.47 66.9363 149.288 69.5456C149.293 70.4782 149.289 71.414 149.277 72.3527Z" fill="#F18701"/>
<path d="M108.147 61.3474C109.58 61.0307 111.035 61.0316 112.478 61.0312C113.935 61.0307 113.935 57.2381 112.478 57.2385C111.035 57.239 109.58 57.238 108.147 57.5547C107.537 57.6894 107.017 58.3152 107.017 59.4511C107.017 60.3821 107.535 61.4825 108.147 61.3474Z" fill="#F18701"/>
<path d="M126.989 110.298C127.106 110.663 127.272 110.978 127.486 111.213C127.602 111.409 127.734 111.587 127.884 111.74C127.895 111.751 127.906 111.751 127.917 111.76C128.36 112.375 128.922 112.746 129.502 112.754C129.826 112.814 130.169 112.774 130.531 112.608C131.825 112.017 132.849 109.774 132.707 107.498C132.517 104.453 130.678 101.889 128.847 102.445C126.947 103.022 126.089 106.537 126.64 109.418C126.714 109.804 126.838 110.089 126.989 110.298Z" fill="#F18701"/>
<path d="M45.8075 102.444C43.9075 103.021 43.0491 106.536 43.6008 109.417C43.6697 109.777 43.7829 110.049 43.9194 110.255C44.0702 110.614 44.271 110.897 44.4995 111.119C44.9689 112.115 45.7013 112.743 46.4634 112.753C46.7862 112.813 47.1299 112.773 47.4915 112.607C48.7859 112.016 49.8098 109.773 49.6677 107.497C49.4776 104.453 47.6395 101.888 45.8075 102.444Z" fill="#F18701"/>
<path d="M76.5368 79.4743C74.9743 79.5791 73.6666 81.6072 73.2392 84.051C72.9949 85.4477 73.6637 86.3598 74.3334 86.3845C74.4388 86.4376 74.5483 86.4698 74.6633 86.4518C75.2872 86.3536 75.9117 86.3404 76.5379 86.3399C76.6887 86.3399 76.8204 86.2906 76.9401 86.2181C77.3841 86.1754 77.8295 86.1266 78.2786 86.1147C78.8331 86.101 79.4892 85.2566 79.4084 84.2184C79.2034 81.5854 78.2639 79.3596 76.5368 79.4743Z" fill="#F18701"/>
<path d="M161.785 84.8637C161.77 84.1421 161.528 83.4533 160.982 83.2219C160.188 82.8844 159.387 82.9142 158.574 82.8635C158.423 82.8536 158.305 82.7952 158.21 82.7047C158.186 82.6725 158.158 82.6454 158.133 82.616C157.753 82.1002 157.86 80.8728 157.839 79.9181C157.779 77.2959 157.779 74.7269 157.681 72.1057C157.477 66.6656 157.675 60.2722 155.242 56.0614C153.93 53.7901 151.784 53.1994 150.025 52.575C147.655 51.7331 145.231 51.3173 142.829 50.8119C141.126 50.4535 139.401 49.7642 137.668 49.1114C134.259 39.0884 129.114 30.2772 123.741 23.1721C123.749 23.1389 123.755 23.11 123.763 23.0764C124.263 21.0501 124.153 18.6475 123.008 17.2893C121.778 15.8291 119.975 15.7011 118.272 15.8339C118.265 15.8045 118.262 15.776 118.254 15.7466C117.543 13.1259 116.556 11.4899 115.286 10.5668C115.714 6.36032 115.666 0.956757 112.606 0.0858723C109.492 -0.800183 108.541 5.36996 108.658 9.41197C108.617 9.89221 108.618 10.3791 108.623 10.8679C107.517 11.8141 106.639 13.3051 106.226 15.4555C105.831 15.4157 105.435 15.3678 105.04 15.3076C105.037 15.3043 105.035 15.2996 105.033 15.2967C103.905 13.8427 103.52 10.9963 102.21 9.94009C101.664 9.50015 100.929 9.67366 100.349 9.61724C99.3552 9.52195 98.3974 9.00473 97.4063 8.91039C96.96 8.86773 96.6589 9.13889 96.4513 9.57078C96.3036 9.80592 96.2112 10.1274 96.1728 10.4805C96.0675 11.0338 96.0254 11.6563 96.0042 12.2161C95.9093 14.7582 95.7856 17.7942 96.3092 20.2466C96.3717 20.7629 96.568 21.2322 96.8434 21.5802C97.5359 22.4563 98.2135 23.3665 98.89 24.2767C97.6302 31.341 97.4046 38.8239 97.3252 46.2541C96.9258 46.2532 96.5247 46.3205 96.1358 46.4414C96.2169 43.5486 96.2109 40.66 95.8666 37.7705C95.7681 36.9441 95.2529 36.3885 94.7775 36.3781C93.1704 36.3449 91.3046 35.7485 89.6726 36.3335C89.0037 35.7912 88.0013 36.3288 87.9988 37.9587C87.9833 48.6174 87.672 59.3316 87.1308 69.9472C86.9893 72.7201 86.817 77.249 88.793 78.3413C90.6318 79.3582 92.6942 78.7722 94.5894 78.7295C95.2074 78.7158 95.7161 77.8767 95.7192 76.8332C95.7251 74.3315 95.7582 71.8341 95.7935 69.338C96.2799 69.5424 96.7648 69.7277 97.2617 69.8202C97.2617 70.2189 97.2622 70.6176 97.26 71.0158C97.2357 75.7149 97.1303 80.7458 96.1358 85.2121C94.133 84.7854 92.1231 84.4569 90.1174 84.0743C90.1121 83.8259 90.0804 83.5661 90.0101 83.3025C88.9088 79.1738 85.8875 76.7939 83.3147 78.1829C81.2881 73.8939 78.6794 70.5602 75.1296 70.7171C74.3422 70.7517 73.631 71.0404 72.9862 71.5193C70.5763 67.8461 67.6462 65.2609 64.7737 62.7606C61.3719 59.801 58.0927 56.6298 54.7949 53.3592C47.1343 45.7616 39.3244 38.5878 31.8613 30.4403C28.1073 26.3414 24.46 21.9751 20.7535 17.7581C17.4991 14.0551 14.1823 10.2928 10.4173 8.21823C6.86385 6.26076 1.66004 7.38575 2.07242 15.4442C2.16449 17.2414 2.57122 19.1278 3.18187 20.8245C3.42054 27.0127 3.17509 33.6479 4.01113 39.7654C0.526017 40.312 0.234814 52.7666 2.53337 56.2956C2.7774 56.6711 3.02172 56.9517 3.26265 57.1504C3.30756 57.3955 3.38495 57.6373 3.50132 57.8667C4.19896 59.2368 5.11127 60.3367 5.64905 61.9168C6.17129 63.4509 4.59269 65.4596 3.77953 65.5942C3.15786 65.6971 2.71527 64.949 2.42689 64.1137C2.31419 63.787 2.25855 63.422 2.24075 63.1119C3.48465 62.6653 3.42619 59.2472 2.04106 59.37C0.394115 59.5165 -0.23659 61.8784 0.0783386 64.3621C0.381404 66.7519 1.67078 68.9403 3.11549 69.3034C5.19939 69.8273 7.37988 67.0008 7.93122 63.6936C8.43624 60.6647 6.9613 58.4048 5.76344 56.3729C6.30997 55.5162 6.72856 54.2765 6.9387 52.9704C7.40756 50.0572 7.53862 45.5933 6.69551 42.5663C6.73873 42.27 6.73703 41.9353 6.66105 41.5617C5.60301 36.3705 5.62221 30.6356 5.54369 25.0779C7.20251 26.9316 9.18529 27.2407 10.869 24.3412C17.6183 33.3397 24.4965 42.4904 30.4906 52.8841C33.3704 57.8786 36.2166 62.5857 39.504 66.824C42.0412 70.0947 45.0843 73.1349 47.1634 77.3372C42.9838 76.6829 38.79 76.1946 34.6462 77.6894C34.0034 77.9208 33.7766 78.7921 33.8489 79.6322C33.3317 81.7902 32.7586 83.9084 32.22 86.0503C30.9851 86.2793 29.6582 85.6753 28.4682 85.2747C28.4343 85.2633 28.4036 85.2647 28.3705 85.2581C27.9279 84.994 27.4342 85.1865 27.1921 86.146C26.1412 90.3123 25.459 94.6515 24.8659 99.0548C24.3482 99.1505 23.8451 99.7441 23.7898 100.851C23.6587 103.477 23.5178 106.084 23.1241 108.643C23.0303 109.253 23.1065 109.77 23.2749 110.165C23.2088 111.188 23.5652 112.278 24.3547 112.229C26.6823 112.085 28.9529 113.095 31.2746 113.177C31.6161 113.189 31.874 112.986 32.0556 112.674C32.3123 112.476 32.5315 112.112 32.6465 111.548C32.9295 110.162 33.2693 108.812 33.5543 107.429C33.6393 107.464 33.726 107.488 33.8169 107.488C33.9836 107.489 34.15 107.491 34.3163 107.503C34.3307 107.504 34.3536 107.509 34.3773 107.513C34.4194 107.533 34.466 107.559 34.4959 107.574C34.3858 109.794 34.4395 112.053 34.66 114.287C35.3125 120.895 37.8975 126.423 41.6455 128.636C41.7653 128.881 41.9223 129.091 42.1313 129.228C48.0489 133.118 53.9439 127.659 56.8022 118.713C57.7778 115.66 58.3096 112.335 58.413 109.006C63.4445 109.038 68.4693 109.527 73.4985 109.733C73.8182 109.815 74.1374 109.895 74.4557 109.968C74.4515 110.195 74.4439 110.423 74.4422 110.648C74.4343 111.699 74.8481 112.286 75.3226 112.432C75.7417 112.805 76.2227 112.913 76.7207 112.869C83.0577 112.929 89.3819 113.786 95.7198 113.809C96.2036 113.81 96.7007 113.233 96.8089 112.416C96.901 111.725 96.9854 111.03 97.0656 110.334C99.1473 110.537 101.235 110.481 103.313 110.776C104.86 110.996 106.378 111.669 107.909 112.078C110.507 112.773 112.668 111.422 113.19 106.727C113.206 106.594 113.21 106.467 113.21 106.342C113.824 105.834 114.331 105.031 114.808 104.019C115.056 104.014 115.305 104.004 115.553 103.99C115.594 103.998 115.633 104.012 115.678 104.012H117.864C117.415 107.336 117.357 110.841 117.698 114.287C118.267 120.046 120.304 124.983 123.298 127.621C123.887 128.331 124.517 128.855 125.181 129.235C131.095 133.111 136.984 127.654 139.84 118.714C141.182 114.515 141.695 109.803 141.388 105.276H142.603C142.678 105.909 142.744 106.541 142.793 107.171C142.906 108.638 143.799 109.211 144.431 108.881C146.569 109.513 148.972 109.637 150.895 107.861C151.469 107.331 151.558 106.181 151.301 105.266C151.256 105.104 151.213 104.941 151.169 104.779C151.68 105.201 152.184 105.553 152.763 105.59C152.768 105.91 152.772 106.228 152.773 106.54C152.779 107.639 153.285 108.349 153.903 108.436C155.91 108.719 157.919 108.46 159.929 108.436C160.382 108.431 160.949 107.869 161.018 107.043C161.599 100.074 161.983 93.0382 162 85.9962C162.001 85.5302 161.918 85.1533 161.785 84.8637ZM93.8175 40.0897C93.8697 40.7131 93.9045 41.3403 93.9291 41.968C93.387 41.2512 92.8216 40.5784 92.2618 39.8915C92.7854 39.9394 93.3105 40.0238 93.8175 40.0897ZM90.0364 51.4657C91.2602 52.7429 92.4225 54.1798 93.6316 55.4944C93.6274 55.9391 93.6257 56.3833 93.6302 56.8266C93.6322 57.0124 93.6322 57.1978 93.6339 57.3836C92.4471 55.7713 91.2758 54.1272 90.0042 52.7011C90.0155 52.2892 90.0254 51.8772 90.0364 51.4657ZM89.6127 74.8061C89.337 74.6942 89.2444 73.7759 89.2424 72.5826C89.7356 73.4146 90.2053 74.3016 90.721 75.0886C90.3476 75.0388 89.9768 74.9535 89.6127 74.8061ZM91.6576 75.1422C90.7685 74.0717 90.0722 72.5584 89.2684 71.3097C89.2825 70.9309 89.3014 70.5446 89.3232 70.162C90.3445 71.7686 91.2464 73.6095 92.3174 75.1095C92.0971 75.1237 91.8771 75.1403 91.6576 75.1422ZM93.4706 75.0132C93.3749 75.0227 93.2783 75.0303 93.1825 75.0402C91.7695 73.3402 90.7029 70.9281 89.3989 68.9991C89.4249 68.6345 89.4514 68.2932 89.476 67.9779C90.8196 69.8733 92.2663 71.57 93.4831 73.6962C93.4791 74.1348 93.4738 74.5738 93.4706 75.0132ZM93.4978 72.3773C92.2694 70.3886 90.8577 68.7397 89.5678 66.8591C89.5816 66.6884 89.5921 66.5504 89.598 66.4556C89.6138 66.202 89.626 65.9474 89.6395 65.6938C90.9504 67.3772 92.1934 69.2043 93.5178 70.8593C93.5113 71.3657 93.5043 71.871 93.4978 72.3773ZM93.5353 69.7026C92.2349 68.0419 91.0032 66.2347 89.6974 64.5859C89.7231 64.026 89.7395 63.4642 89.759 62.9024C91.0698 64.2753 92.3759 65.6663 93.5709 67.3128C93.5591 68.1092 93.5472 68.9052 93.5353 69.7026ZM93.5879 66.1219C92.3866 64.5432 91.0927 63.1821 89.7983 61.8257C89.8195 61.0795 89.8372 60.3329 89.8525 59.5853C91.1433 60.9767 92.3462 62.5814 93.6139 64.0316C93.6065 64.729 93.5977 65.425 93.5879 66.1219ZM93.6251 62.8995C92.3716 61.4351 91.1718 59.8441 89.8748 58.4901C89.8836 58.0374 89.8923 57.5851 89.9014 57.1328C91.1049 58.7352 92.3409 60.258 93.6325 61.6527C93.6294 62.0685 93.6288 62.4843 93.6251 62.8995ZM93.6387 60.5329C92.3536 59.1183 91.1224 57.5813 89.9237 55.9623C89.9389 55.2432 89.9562 54.5254 89.9759 53.8086C91.2526 55.2868 92.4301 56.9778 93.641 58.603C93.6418 59.2468 93.641 59.8896 93.6387 60.5329ZM93.6494 54.3851C92.4521 53.0586 91.2924 51.633 90.0649 50.3853C90.0759 49.9501 90.0855 49.5153 90.096 49.0801C91.3113 50.3644 92.5688 51.5539 93.6876 53.0581C93.6729 53.5009 93.6593 53.9437 93.6494 54.3851ZM93.7294 51.9227C92.5852 50.4758 91.3283 49.292 90.1222 47.9878C90.1316 47.5749 90.1378 47.1615 90.1462 46.7486C91.3325 48.1234 92.5256 49.5248 93.7819 50.6725C93.7638 51.0893 93.7458 51.5065 93.7294 51.9227ZM93.8262 49.6239C92.5657 48.433 91.3644 47.0084 90.1674 45.6255C90.181 44.9035 90.1926 44.1805 90.2039 43.4585C91.4209 44.9073 92.6792 46.2541 93.9025 47.6877C93.8796 48.333 93.8539 48.9787 93.8262 49.6239ZM93.9372 46.5756C92.7018 45.1471 91.4362 43.7951 90.22 42.3193C90.2262 41.8495 90.2304 41.3792 90.2358 40.9084C91.4523 42.4786 92.7809 43.8216 93.961 45.4591C93.955 45.8312 93.9474 46.2034 93.9372 46.5756ZM90.44 39.9778C90.7207 39.9072 91.0097 39.8716 91.302 39.8597C92.1782 40.9795 93.1187 42.0054 93.9641 43.2011C93.97 43.5557 93.972 43.9108 93.9717 44.2663C92.827 42.772 91.5783 41.4873 90.44 39.9778ZM134.655 48.0931C133.265 47.7043 131.874 47.4735 130.489 47.591C130.679 45.3467 131.004 43.0413 131.495 40.916C132.636 43.2177 133.7 45.6099 134.655 48.0931ZM129.909 37.861C130.169 38.337 130.424 38.8191 130.677 39.3041C130.158 41.3289 129.792 43.4955 129.546 45.6805C129.325 44.7077 129.101 43.7353 128.871 42.7687C129.146 41.1089 129.444 39.3672 129.909 37.861ZM129.099 36.4042C128.717 37.4979 128.428 38.7295 128.185 39.9906C127.326 36.6426 126.357 33.3848 125.146 30.3412C125.056 30.1141 124.969 29.8837 124.88 29.6556C126.336 31.7828 127.754 34.0361 129.099 36.4042ZM115.792 16.0998C115.774 16.1012 115.756 16.1031 115.739 16.1046C115.659 16.1107 115.58 16.1126 115.5 16.1164C115.35 15.6542 115.203 15.1882 115.055 14.724C115.326 15.0952 115.57 15.5466 115.792 16.0998ZM114.096 13.8238C114.104 13.8612 114.114 13.8991 114.129 13.9375C114.402 14.643 114.629 15.3911 114.864 16.1335C114.81 16.1335 114.756 16.1354 114.702 16.1344C114.326 15.4181 114.087 14.5377 113.833 13.683C113.923 13.7247 114.01 13.7726 114.096 13.8238ZM112.8 13.4075C112.917 13.4189 113.025 13.4426 113.135 13.4639C113.14 13.4843 113.14 13.5042 113.147 13.5256C113.431 14.3808 113.66 15.2943 113.981 16.1069C113.929 16.1036 113.877 16.1041 113.824 16.1008C113.439 15.2512 113.1 14.3481 112.8 13.4075ZM113.103 16.042C112.924 16.024 112.746 16.0069 112.565 15.9856C112.195 15.1749 111.878 14.2993 111.548 13.4412C111.747 13.4132 111.951 13.3957 112.16 13.3895C112.162 13.4004 112.162 13.4113 112.165 13.4222C112.441 14.3362 112.754 15.2076 113.103 16.042ZM112.239 3.80977C112.36 3.8439 112.464 3.90838 112.56 3.98565C112.528 4.02216 112.501 4.06245 112.482 4.10844C112.011 4.67923 111.546 5.26377 111.075 5.83551C111.247 4.60622 111.588 3.62488 112.239 3.80977ZM110.95 7.14112C111.643 6.3257 112.314 5.46051 113.004 4.63893C113.058 4.77783 113.102 4.93286 113.14 5.09642C112.379 5.9327 111.727 7.0648 110.923 7.76596C110.93 7.56164 110.938 7.35256 110.95 7.14112ZM113.275 6.07492C113.355 7.21698 113.241 8.57854 113.109 9.67982C112.815 9.63194 112.511 9.6016 112.195 9.59354C111.766 9.58311 111.34 9.62578 110.922 9.71538C110.922 9.67366 110.926 9.63715 110.924 9.59354C110.917 9.39822 110.911 9.12941 110.909 8.817C111.79 8.14949 112.481 6.98136 113.275 6.07492ZM110.924 13.5725C111.232 14.3424 111.519 15.1332 111.832 15.8955C111.829 15.8955 111.827 15.895 111.824 15.8945C111.759 15.886 111.692 15.8817 111.626 15.8737C111.286 15.1758 111.006 14.404 110.73 13.6284C110.794 13.6071 110.859 13.5905 110.924 13.5725ZM110.162 13.8792C110.393 14.5282 110.624 15.1791 110.883 15.7959C110.809 15.7888 110.736 15.7789 110.661 15.7722C110.398 15.2256 110.204 14.587 110.008 13.9589C110.057 13.9276 110.112 13.9077 110.162 13.8792ZM109.502 14.3718C109.646 14.8255 109.787 15.2834 109.949 15.7172C109.907 15.7139 109.864 15.7096 109.822 15.7073C109.646 15.338 109.505 14.9246 109.358 14.5164C109.404 14.4642 109.454 14.4201 109.502 14.3718ZM108.928 15.1403C108.991 15.3152 109.054 15.4897 109.119 15.6627C108.976 15.6537 108.833 15.6456 108.69 15.6371C108.763 15.457 108.843 15.2939 108.928 15.1403ZM97.2936 50.0444C97.2899 50.5294 97.2843 51.0096 97.2794 51.4932C97.0041 51.066 96.7312 50.6346 96.4604 50.1994C96.7391 50.0984 97.0207 50.0425 97.2936 50.0444ZM95.9079 53.3686C96.3635 54.0139 96.7931 54.7117 97.2376 55.3797C97.2337 55.621 97.2317 55.8637 97.228 56.1046C96.7761 55.5067 96.3307 54.8952 95.8881 54.2775C95.8918 53.9745 95.9011 53.6716 95.9079 53.3686ZM97.2159 57.2836C97.2105 57.7695 97.204 58.2564 97.2021 58.7423C96.7685 58.2777 96.3335 57.816 95.8895 57.3794C95.8875 56.9479 95.8867 56.5165 95.8827 56.0846C95.8805 55.8879 95.883 55.6916 95.8825 55.4949C96.3217 56.1022 96.7654 56.7005 97.2159 57.2836ZM97.206 61.839C96.799 61.3337 96.3779 60.8572 95.9556 60.3846C95.9339 60.3599 95.9121 60.3433 95.8909 60.3305C95.8935 59.7175 95.8943 59.1045 95.8941 58.4916C96.3341 58.9377 96.7682 59.3994 97.2015 59.864C97.2018 60.522 97.2021 61.181 97.206 61.839ZM95.8842 61.4455C96.3383 61.9571 96.786 62.4828 97.2145 63.0503C97.2196 63.6211 97.2244 64.1919 97.23 64.7627C96.7741 64.1696 96.3321 63.5429 95.8751 62.9507C95.8799 62.4492 95.8808 61.9466 95.8842 61.4455ZM96.0195 65.5231C95.9596 65.4975 95.9034 65.4904 95.8466 65.479C95.8525 65.0291 95.8568 64.5787 95.8624 64.1279C96.3211 64.7399 96.771 65.3719 97.2416 65.9555L97.2422 65.9943C96.8459 65.8886 96.4462 65.7047 96.0195 65.5231ZM97.254 54.13C96.8236 53.4658 96.3951 52.7964 95.9342 52.1891C95.9486 51.707 95.9664 51.2258 95.9839 50.7437C96.4061 51.4254 96.8352 52.0957 97.2673 52.759C97.2625 53.2155 97.2597 53.6749 97.254 54.13ZM86.523 82.6616C86.5428 82.6042 86.5696 82.5236 86.5998 82.4345C86.8854 82.7208 87.1483 83.0764 87.3814 83.4988C87.0317 83.4168 86.6815 83.3305 86.3324 83.2399C86.3925 83.0437 86.4578 82.8507 86.523 82.6616ZM85.7457 81.821C85.8643 81.8755 85.9801 81.9438 86.0943 82.0192C85.9674 82.3596 85.8516 82.7165 85.7522 83.084C85.6596 83.0584 85.5669 83.0351 85.4743 83.0091C85.5387 82.599 85.6316 82.2036 85.7457 81.821ZM85.1732 81.6428C85.1142 81.8589 85.0597 82.078 85.0136 82.3017C84.9297 82.0746 84.8475 81.8452 84.7614 81.6195C84.8998 81.6115 85.0371 81.6219 85.1732 81.6428ZM4.49553 43.7396C4.75284 44.5081 4.88446 45.4188 4.94603 46.3579C4.51982 45.8355 4.09502 45.3102 3.67559 44.7731C3.87161 44.1634 4.14106 43.7714 4.49553 43.7396ZM4.4961 53.2411C4.33002 53.8081 4.36137 53.9693 4.01594 53.4393C3.74281 53.0197 3.53126 52.1081 3.4019 51.0058C3.80692 51.5586 4.22721 52.0782 4.66161 52.566C4.61359 52.7979 4.55936 53.0245 4.4961 53.2411ZM4.82119 51.5989C4.28483 50.984 3.77077 50.3194 3.28609 49.5898C3.26378 49.1285 3.25559 48.6577 3.26067 48.1926C3.80636 48.8772 4.36504 49.53 4.93756 50.1496C4.91553 50.628 4.88164 51.1172 4.82119 51.5989ZM4.9771 49.0588C4.40458 48.4283 3.84477 47.7655 3.30276 47.0634C3.3358 46.5703 3.38862 46.1034 3.46149 45.6819C3.96764 46.321 4.48084 46.9439 4.98981 47.5759C4.99603 48.0812 4.9901 48.5819 4.9771 49.0588ZM47.0024 71.7729C46.7061 71.3291 46.4017 70.8987 46.0941 70.4749C46.4624 69.1555 46.6982 67.7323 47.0134 66.3698C47.1456 65.799 46.5991 65.5534 46.4686 66.1176C46.1816 67.3578 45.963 68.6473 45.6402 69.8562C45.3281 69.4385 45.012 69.0285 44.694 68.6231C44.8931 67.4521 45.1451 66.3219 45.5772 65.3022C45.789 64.8025 45.299 64.3294 45.0894 64.8234C44.6728 65.8061 44.4127 66.8903 44.2102 68.0153C43.8565 67.5716 43.5018 67.134 43.1484 66.6974C43.4168 65.4051 43.6656 64.1009 43.9639 62.8261C44.0972 62.2562 43.5504 62.0116 43.419 62.5743C43.1467 63.7382 42.9154 64.9262 42.6731 66.1072C42.4048 65.7763 42.1359 65.4444 41.8712 65.1125C41.863 65.1026 41.8551 65.0912 41.8469 65.0817C42.0404 64.145 42.3212 63.2698 42.5881 62.3804C42.7516 61.8362 42.2644 61.3555 42.1003 61.9016C41.8455 62.7502 41.5783 63.5917 41.3772 64.4768C41.1679 64.209 40.9643 63.934 40.7584 63.6628C40.966 62.7706 41.1753 61.8798 41.4136 61.0089C41.5648 60.4576 41.0781 59.9754 40.9259 60.5301C40.6982 61.3602 40.4963 62.2069 40.2969 63.0565C39.9935 62.6492 39.6944 62.2368 39.397 61.822C39.6481 60.9222 39.8983 60.0219 40.1144 59.0955C40.2474 58.5257 39.7009 58.2811 39.5695 58.8438C39.3834 59.6421 39.1682 60.4182 38.9516 61.1933C38.7682 60.9335 38.592 60.6633 38.4104 60.4002C38.6804 59.3179 39.051 58.3128 39.2978 57.2101C39.4261 56.6369 38.8801 56.3914 38.753 56.9584C38.5366 57.9245 38.2243 58.8153 37.9675 59.7512C37.7531 59.435 37.5436 59.1093 37.3314 58.7897C37.5179 58.1014 37.7043 57.413 37.8907 56.7247C38.0401 56.1724 37.5534 55.6897 37.4029 56.2458C37.2329 56.873 37.0631 57.5003 36.8931 58.1284C36.7033 57.8378 36.5163 57.5415 36.3279 57.248C36.494 56.5564 36.668 55.8737 36.9301 55.2659C37.1442 54.7691 36.6536 54.2969 36.4423 54.7871C36.207 55.3323 36.0398 55.942 35.8876 56.5611C35.7362 56.3222 35.5868 56.079 35.4359 55.8386C35.5557 55.1976 35.6639 54.552 35.7345 53.8882C35.798 53.2904 35.2535 53.0349 35.1896 53.6365C35.1365 54.1343 35.0631 54.6221 34.9792 55.1057C34.7134 54.6738 34.4505 54.2324 34.1867 53.7939C34.2985 53.3151 34.4053 52.8353 34.4265 52.3404C34.4525 51.7302 33.8873 51.7345 33.8616 52.3404C33.8551 52.4954 33.789 52.785 33.7305 53.0387C33.5492 52.7334 33.3701 52.4186 33.1896 52.11C33.2472 51.7132 33.2896 51.3121 33.2967 50.9181C33.3077 50.3066 32.7428 50.3085 32.7318 50.9181C32.7295 51.0385 32.7171 51.1613 32.7083 51.2836C32.6211 51.1329 32.5332 50.9859 32.4462 50.8342C32.3587 50.6816 32.2694 50.5313 32.1816 50.3791C32.2576 49.9643 32.3434 49.5542 32.4389 49.1479C32.5728 48.5785 32.0262 48.3339 31.894 48.8962C31.8384 49.1342 31.7859 49.3736 31.7362 49.6144C31.5932 49.3693 31.4475 49.1289 31.3037 48.8853C31.3368 48.5515 31.3698 48.2178 31.4032 47.884C31.4625 47.2862 30.9182 47.0297 30.8583 47.6323C30.8442 47.7759 30.8298 47.9186 30.8157 48.0623C30.6199 47.7351 30.4214 47.4123 30.2236 47.0871C30.3039 46.5101 30.3773 45.9313 30.4618 45.3557C30.549 44.7622 30.0042 44.5105 29.9169 45.104C29.8582 45.5046 29.8051 45.9066 29.7511 46.3096C29.5605 45.9995 29.3639 45.6985 29.1718 45.3908C29.1837 45.0613 29.2018 44.7328 29.2376 44.4081C29.3032 43.8107 28.7592 43.5552 28.6928 44.1563C28.6773 44.2952 28.6677 44.4346 28.6566 44.574C28.4866 44.3047 28.3123 44.0421 28.1415 43.7742C28.1878 43.2466 28.2358 42.7189 28.2959 42.1955C28.3646 41.5982 27.82 41.3436 27.7511 41.9438C27.7107 42.2951 27.6765 42.6483 27.6441 43.0019C27.5068 42.7891 27.3661 42.581 27.228 42.3686C27.2481 42.0059 27.2673 41.6442 27.2701 41.2796C27.2757 40.6676 26.7109 40.6685 26.7052 41.2796C26.7044 41.373 26.6998 41.4673 26.6976 41.5603C21.8499 34.1741 16.6828 27.2933 11.5929 20.5016C11.2353 20.0247 10.83 19.9674 10.4786 20.1584C10.2137 20.1385 9.94083 20.3277 9.71262 20.8174C7.50783 25.5477 4.88531 19.8251 4.36984 15.8272C4.09361 13.6839 4.55739 11.8739 5.84591 11.2732C8.95057 9.82347 12.6455 13.672 15.1692 16.1923C18.8379 19.8564 22.301 24.1321 25.8172 28.1869C29.498 32.4314 33.2501 36.4582 37.0606 40.367C40.8609 44.2654 44.7324 47.9651 48.5909 51.6966C52.1819 55.1687 55.6899 58.9196 59.3208 62.2676C63.2448 65.8853 67.6606 68.7767 71.0791 73.7531C69.6056 76.2074 68.6365 79.7792 67.9818 83.0603C66.6226 82.9972 65.2731 82.7659 63.9227 82.5075C63.0963 80.0247 62.7619 77.2134 61.6784 74.8781C60.5952 72.5447 59.1852 70.9191 57.4753 70.1577C54.3161 68.7502 51.4823 72.4134 49.5863 76.4421C49.5829 76.4345 49.5798 76.4284 49.5767 76.4208C50.339 74.2139 50.8522 71.789 51.6741 69.6348C51.8713 69.118 51.3823 68.643 51.1863 69.156C50.4059 71.2011 49.9054 73.4914 49.2044 75.6054C49.0332 75.246 48.8542 74.8976 48.6717 74.5534C49.2103 72.6561 49.7114 70.7304 50.2664 68.8464C50.4271 68.3007 49.9402 67.82 49.7786 68.3676C49.2499 70.162 48.7705 71.9943 48.261 73.8043C47.9944 73.335 47.7167 72.8813 47.4334 72.4357C47.9735 70.5858 48.4861 68.7155 48.8872 66.7642C49.0064 66.184 48.4604 65.9379 48.3424 66.5125C47.9732 68.3216 47.5012 70.0567 47.0024 71.7729ZM25.4689 108.458C25.5048 108.176 25.5342 107.894 25.5655 107.611C25.7181 107.913 25.8697 108.214 26.0222 108.516C25.8381 108.493 25.6534 108.471 25.4689 108.458ZM26.8303 108.638C26.4442 107.901 26.0711 107.146 25.6878 106.405C25.7223 106.028 25.7505 105.65 25.7799 105.272C26.29 106.449 26.7866 107.644 27.3492 108.74C27.176 108.705 27.0035 108.668 26.8303 108.638ZM28.1869 108.91C27.3096 107.421 26.6227 105.623 25.8762 103.925C25.8983 103.586 25.9217 103.247 25.9409 102.907C26.0019 102.915 26.0626 102.913 26.1234 102.918C27.2475 105.013 28.3022 107.211 29.5026 109.175C29.0636 109.097 28.625 109.004 28.1869 108.91ZM30.7244 109.35C30.6194 109.34 30.5146 109.324 30.4095 109.312C29.1314 107.373 28.0409 105.134 26.9024 102.964C27.1486 102.966 27.3949 102.957 27.641 102.941C28.7205 104.926 29.7152 107.035 30.8027 109.004C30.7767 109.119 30.7501 109.235 30.7244 109.35ZM31.0275 108.015C30.1158 106.337 29.2642 104.568 28.3643 102.869C28.5581 102.843 28.7518 102.813 28.9459 102.78C28.958 102.83 28.973 102.881 28.9987 102.928C29.722 104.274 30.4999 105.529 31.3128 106.72C31.2204 107.153 31.1249 107.585 31.0275 108.015ZM31.5074 105.753C30.8476 104.769 30.2157 103.733 29.6155 102.646C29.6288 102.644 29.6418 102.642 29.6548 102.638C30.2132 103.754 30.8577 104.729 31.5235 105.672C31.5184 105.7 31.5125 105.726 31.5074 105.753ZM36.7005 108.637C37.2487 108.757 37.7949 108.863 38.3423 108.893C38.3398 109.247 38.3466 109.599 38.3573 109.951C37.8139 110.214 37.2611 110.402 36.699 110.527C36.6835 109.898 36.6838 109.266 36.7005 108.637ZM43.0442 95.2697C42.9188 95.3669 42.7976 95.4807 42.6753 95.5911C42.3782 94.7786 42.0819 93.9646 41.819 93.1221C41.978 92.9529 42.1401 92.7898 42.3045 92.6357C42.5866 93.4857 42.825 94.3685 43.0442 95.2697ZM42.8047 92.1944C43.1812 91.8886 43.5676 91.6193 43.9656 91.4017C44.0107 92.4636 44.1023 93.5142 44.2282 94.5567C44.0031 94.6544 43.7817 94.7743 43.5636 94.9089C43.3385 93.9821 43.0945 93.0709 42.8047 92.1944ZM42.1915 96.0681C42.0672 96.2017 41.9461 96.3459 41.8257 96.4928C41.3724 95.9315 40.9075 95.4015 40.4256 94.9123C40.7231 94.4614 41.0323 94.0357 41.3563 93.6474C41.6167 94.4704 41.9028 95.2702 42.1915 96.0681ZM41.369 97.0944C41.0976 97.4827 40.8417 97.9108 40.5999 98.3688C40.1666 97.8857 39.7489 97.3675 39.3478 96.81C39.5566 96.389 39.7721 95.9789 40.0008 95.5926C40.4714 96.0576 40.9273 96.5573 41.369 97.0944ZM40.2387 99.1003C40.1268 99.3463 40.0206 99.6033 39.9172 99.8645C39.4823 99.398 39.0405 98.9481 38.607 98.4773C38.7318 98.1611 38.8609 97.8496 38.9965 97.5472C39.3956 98.1 39.8096 98.6172 40.2387 99.1003ZM39.6224 100.673C39.53 100.947 39.4422 101.227 39.3591 101.515C38.873 101.187 38.3886 100.856 37.9184 100.473C38.0395 100.068 38.168 99.6692 38.3056 99.2795C38.7411 99.7536 39.1851 100.205 39.6224 100.673ZM39.1309 102.372C39.0487 102.706 38.9736 103.047 38.9035 103.39C38.3838 103.159 37.8619 102.95 37.3314 102.822C37.4351 102.316 37.5489 101.815 37.6774 101.326C38.1522 101.709 38.6403 102.042 39.1309 102.372ZM38.7355 104.294C38.6578 104.756 38.5951 105.225 38.5395 105.698C38.0039 105.58 37.4696 105.443 36.9346 105.307C36.947 105.201 36.958 105.094 36.9716 104.987C37.0244 104.567 37.0891 104.153 37.1591 103.741C37.6921 103.858 38.2149 104.062 38.7355 104.294ZM38.4434 106.626C38.4056 107.07 38.3813 107.517 38.3641 107.963C37.8201 107.935 37.2769 107.822 36.7349 107.7C36.76 107.208 36.7945 106.72 36.8386 106.234C37.3732 106.37 37.9079 106.507 38.4434 106.626ZM36.7343 111.47C37.2995 111.348 37.8562 111.164 38.4039 110.91C38.42 111.15 38.4395 111.389 38.4621 111.627C37.9119 111.987 37.3761 112.409 36.8287 112.792C36.79 112.354 36.7567 111.914 36.7343 111.47ZM36.9247 113.743C37.4769 113.362 38.0172 112.933 38.5714 112.567C38.6479 113.135 38.7437 113.694 38.8603 114.237C38.3104 114.734 37.7978 115.339 37.2569 115.88C37.123 115.183 37.0106 114.471 36.9247 113.743ZM37.7983 118.13C37.6709 117.694 37.554 117.248 37.4489 116.791C37.9983 116.252 38.5143 115.618 39.071 115.11C39.1281 115.326 39.1905 115.537 39.2543 115.747C38.736 116.477 38.272 117.312 37.7983 118.13ZM38.0768 119.009C38.5558 118.189 39.0171 117.331 39.5348 116.586C39.6224 116.823 39.7167 117.053 39.8139 117.28C39.321 118.114 38.853 118.987 38.4025 119.887C38.2887 119.6 38.1791 119.309 38.0768 119.009ZM38.7414 120.677C39.1953 119.763 39.6684 118.878 40.1655 118.033C40.2356 118.17 40.3104 118.3 40.3844 118.432C40.2457 118.669 40.1192 118.922 40.0062 119.152C39.6647 119.848 39.3704 120.601 39.075 121.352C38.9603 121.132 38.8482 120.908 38.7414 120.677ZM39.4727 122.055C39.6873 121.513 39.9 120.971 40.1257 120.442C40.2714 120.1 40.5019 119.504 40.7683 119.063C40.8745 119.223 40.9863 119.376 41.0998 119.527C40.6417 120.514 40.2641 121.597 39.8819 122.677C39.741 122.475 39.6037 122.27 39.4727 122.055ZM40.3285 123.265C40.7132 122.176 41.0897 121.075 41.5551 120.083C41.5735 120.103 41.5902 120.126 41.6088 120.147C41.6791 120.276 41.7588 120.399 41.8602 120.506C41.8975 120.545 41.9356 120.579 41.9729 120.617C41.6111 121.707 41.2803 122.825 40.9278 123.924C40.7208 123.716 40.5197 123.499 40.3285 123.265ZM41.4216 124.383C41.774 123.285 42.1045 122.167 42.4666 121.078C42.7934 121.359 43.1253 121.602 43.4608 121.801C43.2103 122.955 42.9318 124.085 42.6273 125.199C42.1997 124.976 41.7989 124.701 41.4216 124.383ZM44.1842 126.304C43.8958 126.199 43.606 126.077 43.3156 125.92C43.2654 125.807 43.2032 125.705 43.1338 125.611C43.4495 124.455 43.7388 123.282 43.9983 122.086C44.1972 122.178 44.3969 122.252 44.5968 122.315C44.3361 123.606 44.2248 124.95 44.1842 126.304ZM44.7457 126.477C44.7827 125.114 44.8903 123.766 45.1614 122.467C45.3148 122.497 45.4679 122.516 45.6213 122.531C45.6354 123.906 45.6803 125.272 45.8057 126.631C45.4552 126.615 45.1016 126.567 44.7457 126.477ZM43.0996 117.327C43.0315 117.207 42.9547 117.093 42.8592 116.994C40.2285 114.258 40.2288 108.332 41.1758 103.952C42.2805 98.8462 45.306 96.5834 48.2701 98.9121C50.8392 100.931 52.0272 105.815 51.7679 110.357C51.6295 112.777 50.8279 114.943 49.7775 116.541C47.8549 119.466 45.2253 119.479 43.0996 117.327ZM45.8108 94.1869C45.4625 94.1988 45.1185 94.2561 44.7801 94.3547C44.6513 93.2895 44.5595 92.2162 44.5203 91.1286C44.9256 90.9542 45.3397 90.8257 45.7619 90.7503C45.7563 91.8995 45.7537 93.0453 45.8108 94.1869ZM46.326 90.6783C46.6417 90.6564 46.9609 90.6631 47.2835 90.7005C47.1355 91.8976 47.0431 93.1036 47.0208 94.3192C46.8044 94.2637 46.5892 94.2291 46.3745 94.2078C46.311 93.0354 46.3178 91.8568 46.326 90.6783ZM53.7495 104.848C53.7021 104.563 53.6484 104.282 53.5911 104.003C54.3175 103.667 55.0606 103.422 55.7507 102.929C55.8402 103.47 55.9207 104.016 55.9811 104.57C55.2547 104.873 54.4994 104.802 53.7495 104.848ZM56.0704 105.509C56.1097 106.007 56.1376 106.507 56.1532 107.011C55.4448 107.125 54.731 107.073 54.0196 107.055C53.9876 106.63 53.941 106.206 53.8874 105.786C54.6212 105.752 55.3586 105.795 56.0704 105.509ZM53.3905 103.113C53.2547 102.559 53.0991 102.019 52.9262 101.495C53.612 100.851 54.324 100.259 54.9426 99.4511C55.1945 100.275 55.4129 101.131 55.5883 102.015C54.892 102.54 54.1297 102.772 53.3905 103.113ZM52.6378 100.68C52.515 100.356 52.383 100.043 52.2463 99.736C52.803 98.7428 53.3018 97.6117 53.9032 96.7133C54.1814 97.3149 54.4376 97.9459 54.6669 98.6063C54.0537 99.443 53.3295 100.032 52.6378 100.68ZM51.8927 98.9912C51.723 98.6556 51.5445 98.3332 51.3572 98.0246C51.5332 97.5553 51.7317 97.112 51.8128 96.8949C52.1054 96.1107 52.4167 95.3456 52.7115 94.5643C53.0084 95.0099 53.288 95.4849 53.5493 95.9879C52.9508 96.892 52.4486 97.9995 51.8927 98.9912ZM51.0767 97.0944C51.0431 97.1874 51.0024 97.2945 50.9587 97.4102C50.6737 96.9958 50.3703 96.6175 50.0529 96.2719L50.8646 92.411C51.3674 92.8557 51.8396 93.3701 52.2774 93.9513C51.8851 95.008 51.4606 96.0292 51.0767 97.0944ZM49.5591 95.777C49.5094 95.7305 49.4611 95.6817 49.4111 95.6371C49.1637 95.4224 48.9149 95.2323 48.6652 95.0649C48.8889 93.8276 49.1304 92.5983 49.3521 91.359C49.6978 91.5406 50.0317 91.7539 50.3542 91.9962C50.0893 93.2558 49.8241 94.5164 49.5591 95.777ZM48.1314 94.7506C47.9489 94.6544 47.7664 94.5733 47.584 94.5017C47.6009 93.2591 47.6936 92.0265 47.8489 90.7991C48.0003 90.8328 48.152 90.8717 48.3045 90.92C48.4751 90.9731 48.6423 91.0362 48.8078 91.1049C48.5898 92.3238 48.352 93.5327 48.1314 94.7506ZM46.3737 126.622C46.2415 125.273 46.1986 123.916 46.1853 122.551C46.3463 122.547 46.5065 122.525 46.666 122.505C46.9465 123.809 47.2267 125.113 47.5055 126.418C47.1338 126.526 46.7564 126.598 46.3737 126.622ZM48.0636 126.229C47.7907 124.949 47.5162 123.67 47.2411 122.393C47.4125 122.349 47.5831 122.293 47.7523 122.23C48.0167 123.508 48.3647 124.726 48.7768 125.888C48.5415 126.018 48.3042 126.132 48.0636 126.229ZM49.314 125.552C48.9064 124.421 48.5618 123.24 48.3008 121.993C48.4706 121.909 48.6381 121.813 48.8044 121.711C49.2216 122.799 49.5622 123.964 49.9825 125.047C49.7634 125.229 49.5408 125.399 49.314 125.552ZM50.4768 124.613C50.0577 123.565 49.7309 122.417 49.3318 121.345C49.4995 121.217 49.6636 121.078 49.8261 120.931C50.3667 121.811 50.9304 122.652 51.4674 123.539C51.1485 123.93 50.818 124.29 50.4768 124.613ZM51.9176 122.956C51.4007 122.097 50.8584 121.28 50.333 120.434C50.5743 120.177 50.807 119.896 51.0318 119.596C51.5518 120.382 52.0718 121.167 52.5915 121.952C52.3737 122.303 52.1492 122.639 51.9176 122.956ZM52.9878 121.278C52.4805 120.512 51.9732 119.746 51.4657 118.978C51.5484 118.851 51.6267 118.716 51.7066 118.583C52.3698 118.85 52.9375 119.625 53.5442 120.201C53.3654 120.571 53.181 120.933 52.9878 121.278ZM53.8809 119.464C53.2747 118.966 52.742 118.249 52.1187 117.842C52.1989 117.686 52.2769 117.524 52.3531 117.361C53.0152 117.651 53.66 118.011 54.2867 118.467C54.1565 118.806 54.0224 119.14 53.8809 119.464ZM54.5833 117.655C53.9746 117.206 53.3502 116.836 52.7093 116.539C52.9197 116.015 53.1072 115.457 53.2761 114.874C53.2866 114.882 53.2934 114.895 53.3052 114.902C53.9108 115.241 54.5169 115.574 55.1284 115.878C54.9629 116.487 54.7819 117.081 54.5833 117.655ZM55.3533 115.001C54.7322 114.695 54.1164 114.358 53.5018 114.014C53.6109 113.56 53.7117 113.096 53.793 112.612C53.8122 112.498 53.8283 112.382 53.8458 112.267C54.4859 112.507 55.1344 112.667 55.7764 112.887C55.6583 113.608 55.5165 114.314 55.3533 115.001ZM55.9103 111.966C55.2637 111.746 54.6099 111.586 53.9662 111.342C54.0074 110.957 54.0385 110.568 54.0597 110.179C54.7358 110.182 55.4112 110.196 56.0862 110.251C56.0441 110.825 55.9854 111.398 55.9103 111.966ZM56.1399 109.308C55.4564 109.251 54.7726 109.234 54.0882 109.231C54.0941 108.822 54.0859 108.412 54.071 108.003C54.7717 108.018 55.4691 108.049 56.1661 107.947C56.1667 108.4 56.1597 108.854 56.1399 109.308ZM61.7385 105.201C61.66 105.165 61.579 105.136 61.4959 105.121C60.4365 104.913 59.3699 104.856 58.3079 104.696C57.9131 99.9745 56.6161 95.4906 54.4198 92.0488C50.3554 85.6781 44.1136 85.2439 39.7269 90.8935C37.1662 94.1921 35.5526 98.7992 34.8496 103.84C34.5146 103.728 34.1728 103.698 33.8158 103.697C33.7695 103.697 33.7254 103.711 33.6805 103.721C33.5721 103.517 33.4399 103.35 33.2927 103.233C32.5231 102.158 31.6912 101.05 31.1199 99.6592C30.8298 98.9538 30.3423 98.5793 29.8638 98.7855C29.857 98.7874 29.8508 98.786 29.844 98.7878C28.9631 99.0235 28.059 99.2017 27.1571 99.2235C27.2187 98.7703 27.2811 98.3166 27.3449 97.8634C27.7217 98.1953 28.1008 98.5157 28.516 98.703C28.8682 98.8623 29.0173 97.9468 28.666 97.788C28.2437 97.5974 27.8632 97.2552 27.4805 96.9143C27.5331 96.5526 27.5895 96.1932 27.6441 95.832C27.9853 96.2681 28.3742 96.6024 28.7309 96.9949C29.0365 97.3315 29.3193 96.5108 29.0162 96.1761C28.6148 95.7343 28.1519 95.3868 27.8022 94.8279L27.7988 94.8241C27.833 94.6103 27.8697 94.3974 27.905 94.1826C28.2813 94.7359 28.7535 95.1114 29.2221 95.3825C29.5675 95.5821 29.7144 94.6662 29.3721 94.4676C28.9665 94.2334 28.54 93.9053 28.2256 93.4047C28.1725 93.3193 28.1138 93.2885 28.0556 93.2809C28.1338 92.8301 28.22 92.3826 28.3047 91.935C28.8543 92.5769 29.4475 93.0629 30.0692 93.4857C30.4067 93.7147 30.5524 92.7979 30.2191 92.5708C29.604 92.1526 29.0224 91.6525 28.4849 90.9987C28.5377 90.7375 28.5911 90.4768 28.6456 90.2179C29.1094 90.627 29.5766 91.0257 30.0014 91.5415C30.2971 91.9014 30.5784 91.0779 30.2866 90.7228C29.8344 90.1738 29.3345 89.7576 28.8419 89.3205C28.8464 89.3015 28.8501 89.2821 28.8546 89.2631C29.889 89.6011 30.9371 89.8809 31.9836 89.8344C32.1813 90.1098 32.4479 90.2715 32.7225 90.2952C33.0871 90.6446 33.4704 90.9319 33.8819 91.1153C34.2344 91.2723 34.3835 90.3573 34.0319 90.2004C33.8562 90.1226 33.6884 90.0193 33.524 89.906C33.6884 89.7002 33.8265 89.4129 33.9164 89.028C33.9231 88.9991 33.9308 88.9706 33.9373 88.9417C34.2429 89.1408 34.5536 89.3157 34.8705 89.4551C35.2233 89.6097 35.3727 88.6947 35.0205 88.5401C34.7244 88.4107 34.4347 88.2495 34.15 88.0647C34.2163 87.7911 34.2858 87.519 34.3542 87.245C34.7033 87.4792 35.0704 87.6423 35.4354 87.7954C35.7887 87.9433 35.9387 87.0293 35.5853 86.8804C35.2427 86.7363 34.8982 86.5907 34.5714 86.3712C34.6826 85.9336 34.7953 85.497 34.9075 85.0604C35.256 85.3932 35.6215 85.6791 36 85.8991C36.3451 86.0996 36.492 85.1832 36.15 84.9841C35.7958 84.7783 35.456 84.5034 35.132 84.1857C35.2509 83.724 35.3656 83.2594 35.4831 82.7962C35.9028 83.2196 36.342 83.5865 36.7798 83.9529C37.1043 84.2255 37.3908 83.4087 37.0651 83.1342C36.6055 82.7488 36.1446 82.3629 35.7062 81.913C35.7715 81.6518 35.8401 81.3929 35.9039 81.1317C35.9712 81.1104 36.0387 81.0961 36.1059 81.0767C36.4751 81.4745 36.8496 81.8575 37.2035 82.2937C37.4975 82.6573 37.7788 81.8329 37.4888 81.4749C37.3131 81.2583 37.1315 81.0563 36.9487 80.8582C41.2608 79.882 45.6667 80.9032 49.9811 81.5702C56.907 84.7821 62.3969 93.4417 64.2741 105.038C63.4282 105.143 62.5805 105.242 61.7385 105.201ZM76.752 109.079C76.7803 108.541 76.8224 108.011 76.8707 107.484C77.024 108.036 77.1915 108.58 77.3819 109.094C77.1717 109.091 76.9619 109.082 76.752 109.079ZM78.0578 109.11C77.6251 108.139 77.3274 106.934 77.0444 105.849C77.1195 105.238 77.2045 104.629 77.2929 104.02C77.7878 105.76 78.2532 107.566 78.9032 109.141C78.6213 109.131 78.3397 109.118 78.0578 109.11ZM79.6172 109.166C78.7063 107.221 78.166 104.797 77.5048 102.597C77.5799 102.104 77.6556 101.605 77.7313 101.105C78.715 103.937 79.8643 106.536 80.9481 109.233C80.5043 109.209 80.0609 109.185 79.6172 109.166ZM81.642 109.267C80.4645 106.294 79.1881 103.467 78.1222 100.345C78.5216 100.287 78.9235 100.247 79.3254 100.213C80.4891 103.237 81.5381 106.385 82.7608 109.335C82.3874 109.312 82.0146 109.288 81.642 109.267ZM83.47 109.378C82.205 106.424 81.1441 103.234 79.979 100.162C80.3597 100.134 80.7399 100.111 81.1187 100.084C81.1593 100.081 81.1997 100.081 81.2401 100.078C82.4111 103.129 83.2898 106.472 84.5142 109.45C84.166 109.426 83.8183 109.401 83.47 109.378ZM85.2223 109.497C83.929 106.549 83.0478 103.16 81.8951 100.048C82.1595 100.036 82.423 100.035 82.6874 100.028C83.8965 103.245 85.1435 106.421 86.4086 109.578L85.2223 109.497ZM87.1068 109.627C85.8302 106.448 84.5716 103.25 83.3492 100.011C83.8471 100.006 84.3448 100.009 84.8433 100.02C86.0355 103.347 87.1822 106.726 88.6416 109.728C88.1301 109.695 87.6186 109.662 87.1068 109.627ZM89.4009 109.775C87.8768 106.804 86.7086 103.404 85.5104 100.041C85.7101 100.048 85.9098 100.064 86.1098 100.072C87.3825 103.474 88.9057 106.576 90.3101 109.823C90.0067 109.806 89.7039 109.793 89.4009 109.775ZM91.0207 109.861C89.6271 106.588 88.0912 103.489 86.7899 100.108C87.0656 100.122 87.3407 100.144 87.6164 100.161C88.9063 103.63 90.5428 106.677 92.0355 109.909C91.6972 109.892 91.3591 109.878 91.0207 109.861ZM92.7578 109.942C91.2794 106.684 89.6308 103.639 88.3041 100.206C88.769 100.238 89.2342 100.276 89.6988 100.312C91.0504 103.562 92.5307 106.659 93.8229 109.974C93.4681 109.963 93.1128 109.956 92.7578 109.942ZM94.8069 110.002C94.7069 110.001 94.6061 109.995 94.5061 109.993C93.241 106.671 91.7686 103.586 90.4089 100.368C90.6699 100.389 90.9303 100.412 91.191 100.434C92.4527 103.296 93.6475 106.24 94.9097 109.101C94.8761 109.402 94.8428 109.702 94.8069 110.002ZM95.0413 107.821C93.9858 105.397 92.9733 102.919 91.9169 100.496C92.2406 100.524 92.5643 100.548 92.888 100.576C93.6946 102.199 94.4702 103.864 95.2215 105.559C95.1707 106.314 95.1131 107.069 95.0413 107.821ZM95.3032 104.171C94.7657 102.975 94.2149 101.797 93.6497 100.638C94.2256 100.686 94.8021 100.737 95.378 100.779C95.3842 101.913 95.3563 103.044 95.3032 104.171ZM104.246 107.245C103.815 106.014 103.458 104.734 102.933 103.6C102.71 103.117 102.313 103.794 102.534 104.271C102.943 105.155 103.24 106.155 103.561 107.13C103.386 107.104 103.211 107.077 103.037 107.053C102.672 106.189 102.363 105.262 101.988 104.407C101.775 103.92 101.285 104.392 101.501 104.886C101.794 105.556 102.046 106.272 102.317 106.967C102.064 106.939 101.811 106.911 101.558 106.888C101.231 106.195 100.957 105.438 100.717 104.645C100.552 104.1 100.065 104.579 100.229 105.124C100.408 105.714 100.606 106.285 100.829 106.828C100.753 106.822 100.677 106.816 100.602 106.81C100.282 105.988 99.9381 105.195 99.5868 104.409C99.371 103.925 98.8801 104.398 99.099 104.888C99.3744 105.505 99.6441 106.125 99.9023 106.761C99.7187 106.749 99.5339 106.735 99.3498 106.723C99.0498 106.045 98.7626 105.336 98.6264 104.522C98.5281 103.934 97.9833 104.184 98.0816 104.774C98.1971 105.466 98.4039 106.085 98.6408 106.674C98.4663 106.662 98.2912 106.646 98.1166 106.632C98.0421 106.41 97.9714 106.185 97.9203 105.944C97.848 105.606 97.6283 105.559 97.4856 105.694C97.6305 103.458 97.6842 101.21 97.6009 98.9595C97.5613 97.8985 97.1159 97.103 96.4711 97.0631C90.4516 96.6948 84.5041 96.0363 78.4789 96.5232C77.1839 96.6284 76.2202 96.9712 75.7101 99.1505C75.331 100.769 75.0427 102.507 74.8353 104.279C74.5492 103.631 74.2755 102.968 74.025 102.274C73.8363 101.752 73.348 102.229 73.5372 102.754C73.8906 103.731 74.2891 104.652 74.7063 105.552C74.6851 105.776 74.6588 105.998 74.6404 106.222C74.5794 106.21 74.519 106.193 74.4583 106.181C74.482 106.038 74.4718 105.877 74.4046 105.735C73.8425 104.539 73.3468 103.272 72.7099 102.179C72.4549 101.741 72.0558 102.412 72.3105 102.849C72.8825 103.83 73.344 104.955 73.8394 106.04C73.6304 105.992 73.4203 105.947 73.2118 105.898C73.2214 105.803 73.2164 105.7 73.1777 105.592C72.7904 104.521 72.354 103.512 71.9066 102.51C71.6909 102.027 71.2 102.5 71.4189 102.99C71.8205 103.888 72.2117 104.797 72.5679 105.748C72.3207 105.69 72.0727 105.63 71.8259 105.577C71.3796 104.584 70.9681 103.546 70.4501 102.652C70.1956 102.213 69.7965 102.884 70.0507 103.322C70.4249 103.968 70.743 104.693 71.0593 105.421C70.9266 105.394 70.7941 105.366 70.6616 105.342C70.334 104.417 70.0024 103.504 69.6027 102.652C69.3776 102.171 68.9808 102.847 69.2033 103.322C69.4881 103.929 69.7324 104.577 69.9679 105.236C69.8081 105.215 69.6479 105.194 69.4878 105.179C69.1788 104.487 68.9249 103.734 68.6582 102.984C68.4721 102.461 67.9835 102.937 68.1704 103.464C68.3704 104.027 68.5647 104.592 68.7777 105.133C68.591 105.126 68.4043 105.119 68.217 105.123C67.9157 104.441 67.6488 103.716 67.3872 102.984C67.2 102.461 66.7113 102.937 66.8994 103.463C67.1053 104.039 67.3143 104.613 67.5392 105.166C67.3098 105.189 67.0799 105.218 66.8494 105.262C66.776 105.162 66.6924 105.079 66.5983 105.016C65.9247 100.212 64.6766 95.8177 62.9839 91.9948C76.8661 94.3201 90.8459 92.7026 104.756 94.2163C104.763 94.2172 104.769 94.2139 104.776 94.2149C104.764 94.6344 104.757 95.0545 104.756 95.4807C104.754 96.2771 105.098 97.1475 105.585 97.3087C106.892 97.7435 108.202 98.1369 109.522 98.3825C108.49 99.1851 107.304 99.5554 105.886 99.2733C105.647 99.225 105.452 99.2975 105.292 99.4392C104.732 99.1169 104.045 99.4255 103.855 100.666C103.685 101.777 103.631 102.868 103.626 104.014C103.622 104.867 103.927 105.452 104.342 105.735C104.609 106.279 104.854 106.853 105.103 107.423C104.819 107.359 104.532 107.298 104.246 107.245ZM107.711 27.344C108.985 28.004 110.306 28.3733 111.645 28.6131C110.628 30.325 109.617 32.046 108.62 33.791C108.287 33.5436 107.935 33.3265 107.558 33.151C107.648 31.2775 107.716 29.3987 107.711 27.5209C107.711 27.4635 107.711 27.4033 107.711 27.344ZM110.882 36.498C110.641 36.0704 110.387 35.6627 110.109 35.2939C111.313 33.198 112.538 31.1357 113.764 29.0773C113.795 29.0251 113.818 28.9692 113.843 28.9147C114.28 28.9606 114.717 29.0019 115.153 29.0431C113.681 31.4387 112.256 33.9276 110.882 36.498ZM116.978 30.0287C117.127 29.7922 117.206 29.5291 117.23 29.2669C117.307 29.2769 117.384 29.2844 117.46 29.2953C118.401 34.2732 119.577 39.0988 120.817 43.8818C120.642 44.0231 120.481 44.2469 120.352 44.5877C119.558 46.6998 119.093 49.1204 118.281 51.2249C118.19 51.4609 118.136 51.6947 118.111 51.9218C116.815 51.5904 115.517 51.2917 114.217 51.0063C113.777 46.824 113.211 42.3103 111.923 38.7959C113.539 35.7547 115.228 32.8225 116.978 30.0287ZM108.53 38.0947C108.846 38.4702 109.128 38.903 109.385 39.3738C108.519 41.08 107.678 42.818 106.861 44.5863C106.95 43.2883 107.038 41.9903 107.122 40.6913C107.585 39.8166 108.055 38.9519 108.53 38.0947ZM110.379 41.7745C111.196 44.3649 111.586 47.5398 111.891 50.5142C110.174 50.17 108.455 49.8576 106.735 49.5722C107.889 46.9055 109.107 44.3038 110.379 41.7745ZM122.936 57.121C122.927 57.8326 122.926 58.5437 122.921 59.2553C122.513 58.7319 122.097 58.228 121.658 57.7776C121.346 57.4576 121.063 58.2782 121.373 58.5963C121.911 59.1496 122.416 59.782 122.913 60.4353C122.912 60.6259 122.909 60.8169 122.908 61.008C122.443 60.6486 121.976 60.2926 121.517 59.9114C121.191 59.6417 120.905 60.459 121.231 60.7301C121.784 61.1895 122.347 61.611 122.907 62.0467C122.907 62.3823 122.906 62.7175 122.906 63.0527C122.529 62.6587 122.157 62.2515 121.799 61.8077C121.506 61.4436 121.224 62.2676 121.513 62.6265C121.963 63.1835 122.434 63.6846 122.91 64.172C122.914 64.8646 122.912 65.5577 122.919 66.2499C122.495 65.8862 122.068 65.5312 121.657 65.1268C121.342 64.8167 121.058 65.6359 121.372 65.9455C121.88 66.4471 122.412 66.8681 122.933 67.327C122.938 67.6726 122.94 68.0172 122.946 68.3633C122.523 67.8992 122.09 67.4607 121.657 67.024C121.344 66.7088 121.06 67.528 121.372 67.8428C121.912 68.387 122.453 68.9332 122.972 69.5314C122.986 70.171 122.997 70.81 123.014 71.4491C122.601 71.1063 122.195 70.7375 121.798 70.3431C121.484 70.0306 121.2 70.8503 121.512 71.1618C122.011 71.6577 122.523 72.109 123.048 72.5201C123.063 72.9671 123.076 73.4142 123.093 73.8607C122.898 73.6341 122.701 73.4094 122.504 73.1875C122.2 72.8472 121.917 73.6692 122.218 74.0063C122.531 74.3557 122.839 74.7141 123.145 75.0796C123.164 75.5319 123.182 75.9837 123.205 76.4359C122.666 76.051 122.132 75.6428 121.589 75.2735C121.251 75.0445 121.105 75.9609 121.439 76.1885C121.878 76.4872 122.311 76.8105 122.746 77.1281C121.637 77.943 120.574 78.9163 119.616 80.0584C117.851 82.1624 116.518 85.0604 115.279 87.9978C115.036 88.5738 114.796 89.156 114.555 89.7382C114.398 89.5808 114.21 89.4793 113.981 89.4793C112.315 89.4788 110.65 89.4675 108.987 89.2418C108.17 89.1313 106.791 89.4674 106.055 88.7772C105.715 88.4572 105.505 84.9561 105.438 84.0018C105.236 81.0976 105.231 78.154 105.256 75.2351C105.31 68.7283 105.598 62.297 106.057 55.8448C106.118 54.9914 106.18 54.1385 106.241 53.2861C111.837 54.1959 117.414 55.3598 122.936 57.121ZM121.125 52.7466C121.498 51.5705 121.853 50.3777 122.215 49.1915C122.484 50.2061 122.753 51.2201 123.021 52.2356C123.014 52.5897 123.007 52.9448 123 53.2994C122.377 53.1046 121.751 52.9263 121.125 52.7466ZM113.042 93.2515C112.771 93.8313 112.492 94.3874 112.203 94.917C112.114 94.8781 112.018 94.8516 111.913 94.8492C110.264 94.8141 108.652 94.4282 107.039 93.9266C107.051 93.5886 107.069 93.2515 107.095 92.9131C107.591 92.9349 108.088 92.9102 108.523 92.9524C110.034 93.0965 111.533 93.2131 113.042 93.2515ZM106.258 107.726C106.138 107.69 106.018 107.662 105.899 107.629C105.647 107.096 105.413 106.539 105.172 105.993C105.383 106.035 105.593 106.08 105.804 106.124C106.057 106.686 106.304 107.255 106.552 107.823C106.454 107.79 106.356 107.756 106.258 107.726ZM107.383 108.117C107.109 107.514 106.842 106.902 106.575 106.29C106.816 106.342 107.057 106.394 107.298 106.445C107.602 107.084 107.904 107.725 108.202 108.371C107.928 108.299 107.655 108.213 107.383 108.117ZM109.416 108.523C109.269 108.533 109.123 108.525 108.975 108.513C108.686 107.871 108.39 107.237 108.091 106.607C108.318 106.651 108.545 106.694 108.773 106.732C108.992 107.327 109.221 107.916 109.43 108.522C109.425 108.522 109.421 108.523 109.416 108.523ZM110.012 108.351C109.844 107.838 109.662 107.338 109.477 106.84C109.923 106.901 110.37 106.945 110.817 106.963C110.661 107.647 110.423 108.115 110.012 108.351ZM119.768 107.989C120.312 107.971 120.857 108.012 121.4 108.019C121.375 108.74 121.375 109.461 121.404 110.177C120.851 110.266 120.296 110.323 119.74 110.355C119.724 109.567 119.736 108.777 119.768 107.989ZM131.31 98.9121C133.879 100.931 135.067 105.815 134.808 110.357C134.669 112.777 133.868 114.943 132.817 116.541C130.894 119.467 128.265 119.479 126.139 117.327C126.071 117.207 125.994 117.093 125.898 116.994C123.268 114.258 123.268 108.332 124.215 103.952C125.32 98.8466 128.346 96.5834 131.31 98.9121ZM127.686 91.0831C127.874 91.0068 128.064 90.9447 128.255 90.8887C128.379 91.9948 128.503 93.0979 128.554 94.2201C128.42 94.2343 128.288 94.25 128.156 94.2784C128.053 93.1951 127.846 92.1536 127.686 91.0831ZM128.813 90.7574C129.243 90.6792 129.683 90.6564 130.128 90.6887C129.879 91.8435 129.72 93.0249 129.687 94.25C129.497 94.2201 129.306 94.1983 129.117 94.1931C129.066 93.0363 128.941 91.8976 128.813 90.7574ZM136.17 102.146C136.048 101.736 135.917 101.333 135.775 100.943C136.622 100.942 137.458 100.727 138.299 100.56C138.457 101.172 138.593 101.8 138.71 102.441C137.878 102.11 137.025 102.13 136.17 102.146ZM138.886 103.509C138.969 104.078 139.032 104.656 139.083 105.238C138.331 105.122 137.573 105.167 136.82 105.027C136.714 104.367 136.583 103.72 136.426 103.089C137.257 103.074 138.082 103.094 138.886 103.509ZM135.392 99.9778C135.307 99.7806 135.221 99.5843 135.131 99.3942C135.878 98.7385 136.664 98.2384 137.488 97.9904C137.694 98.529 137.881 99.0875 138.052 99.6621C137.167 99.846 136.288 100.051 135.392 99.9778ZM134.754 98.6513C134.623 98.4091 134.487 98.1739 134.347 97.9473C134.93 96.9792 135.566 96.1103 136.263 95.3863C136.581 95.9377 136.874 96.5279 137.143 97.148C136.31 97.4476 135.512 97.971 134.754 98.6513ZM133.926 97.3101C133.795 97.1248 133.663 96.9408 133.525 96.7692C134.02 95.6902 134.566 94.6852 135.132 93.7119C135.38 94.0224 135.614 94.3595 135.841 94.7084C135.147 95.4513 134.51 96.3354 133.926 97.3101ZM133.064 96.2345C132.958 96.1212 132.851 96.0102 132.741 95.9059C133.069 94.6828 133.452 93.5166 133.883 92.3916C134.152 92.6272 134.413 92.8851 134.665 93.1615C134.101 94.1409 133.561 95.1531 133.064 96.2345ZM132.241 95.4707C132 95.2778 131.758 95.1038 131.516 94.9554C131.782 93.7399 132.027 92.5101 132.355 91.3372C132.705 91.5174 133.043 91.7326 133.37 91.9753C132.944 93.0946 132.566 94.2547 132.241 95.4707ZM130.98 94.6653C130.736 94.5501 130.492 94.4486 130.25 94.3775C130.277 93.1316 130.439 91.9308 130.706 90.7607C130.917 90.8006 131.13 90.8522 131.344 90.92C131.5 90.9693 131.652 91.0272 131.804 91.0878C131.489 92.2517 131.244 93.4644 130.98 94.6653ZM126.891 94.7482C126.663 93.7972 126.448 92.84 126.289 91.8502C126.567 91.653 126.853 91.4861 127.142 91.3363C127.298 92.3721 127.506 93.3819 127.601 94.4344C127.361 94.5183 127.124 94.6221 126.891 94.7482ZM126.363 95.0701C126.093 95.2579 125.829 95.474 125.574 95.7177C125.279 94.8999 125.02 94.0527 124.814 93.1624C125.123 92.8287 125.442 92.5267 125.77 92.2536C125.929 93.2146 126.141 94.1452 126.363 95.0701ZM125.093 96.2183C124.88 96.4601 124.671 96.7152 124.472 96.9968C124.167 96.2544 123.87 95.5025 123.548 94.7795C123.801 94.4026 124.064 94.048 124.335 93.7157C124.546 94.5837 124.803 95.4153 125.093 96.2183ZM124.053 97.6373C123.868 97.9411 123.687 98.2559 123.517 98.5954C123.131 98.0179 122.714 97.496 122.311 96.9465C122.569 96.4122 122.846 95.905 123.136 95.4247C123.455 96.1449 123.748 96.8972 124.053 97.6373ZM123.171 99.3425C122.979 99.7872 122.799 100.256 122.635 100.75C122.194 100.287 121.76 99.8104 121.328 99.3269C121.524 98.7632 121.739 98.2166 121.968 97.6913C122.371 98.237 122.788 98.7608 123.171 99.3425ZM122.374 101.594C122.373 101.598 122.371 101.601 122.37 101.604C122.269 101.967 122.177 102.34 122.09 102.717C121.59 102.38 121.075 102.124 120.543 102.033C120.693 101.392 120.864 100.766 121.053 100.158C121.49 100.645 121.929 101.128 122.374 101.594ZM121.902 103.607C121.815 104.056 121.736 104.511 121.671 104.973C121.143 104.785 120.613 104.613 120.075 104.531C120.151 103.999 120.24 103.473 120.343 102.955C120.881 103.011 121.4 103.267 121.902 103.607ZM121.557 105.897C121.516 106.286 121.479 106.677 121.452 107.071C120.908 107.067 120.364 107.024 119.821 107.039C119.857 106.511 119.904 105.986 119.96 105.466C120.499 105.536 121.029 105.707 121.557 105.897ZM119.772 111.299C120.336 111.265 120.897 111.196 121.459 111.106C121.476 111.339 121.498 111.57 121.521 111.802C120.951 111.872 120.381 111.921 119.809 111.936C119.796 111.725 119.782 111.512 119.772 111.299ZM119.881 112.881C120.467 112.863 121.052 112.81 121.637 112.735C121.679 113.036 121.725 113.334 121.78 113.627C121.208 113.903 120.626 114.124 120.065 114.459C119.99 113.939 119.929 113.413 119.881 112.881ZM120.208 115.361C120.777 114.998 121.373 114.772 121.96 114.496C122.035 114.818 122.114 115.137 122.203 115.447C121.634 115.922 121.08 116.437 120.556 117.048C120.423 116.499 120.309 115.935 120.208 115.361ZM120.786 117.923C121.315 117.285 121.882 116.756 122.464 116.274C122.646 116.798 122.847 117.304 123.076 117.779C122.513 118.438 121.969 119.14 121.452 119.902C121.201 119.276 120.981 118.612 120.786 117.923ZM121.783 120.676C122.313 119.887 122.873 119.167 123.454 118.493C123.639 118.816 123.837 119.124 124.049 119.414C123.585 120.369 123.115 121.319 122.633 122.248C122.323 121.762 122.042 121.234 121.783 120.676ZM123.058 122.871C123.55 121.922 124.027 120.952 124.501 119.976C124.55 120.033 124.598 120.092 124.648 120.147C124.718 120.276 124.798 120.399 124.899 120.506C124.999 120.61 125.099 120.706 125.199 120.801C124.798 121.85 124.436 122.942 124.083 124.044C123.716 123.695 123.375 123.302 123.058 122.871ZM124.582 124.482C124.934 123.381 125.293 122.287 125.696 121.24C125.953 121.448 126.214 121.629 126.476 121.787C126.151 122.896 125.819 123.997 125.597 125.16C125.241 124.968 124.904 124.739 124.582 124.482ZM126.355 125.921C126.289 125.772 126.207 125.637 126.108 125.523C126.321 124.33 126.665 123.202 127.003 122.07C127.1 122.116 127.198 122.155 127.295 122.194C127.075 123.481 126.891 124.786 126.651 126.064C126.553 126.017 126.454 125.974 126.355 125.921ZM127.872 126.492C127.649 126.44 127.425 126.378 127.2 126.295C127.442 125.002 127.627 123.682 127.851 122.381C127.934 122.404 128.018 122.422 128.101 122.44C128.014 123.788 127.961 125.143 127.872 126.492ZM128.431 126.592C128.52 125.239 128.571 123.879 128.66 122.528C128.797 122.54 128.934 122.536 129.07 122.537C129.113 123.925 129.225 125.315 129.495 126.612C129.143 126.64 128.789 126.637 128.431 126.592ZM130.227 126.502C130.174 126.444 130.112 126.414 130.047 126.42C129.775 125.183 129.671 123.842 129.632 122.506C129.818 122.484 130.004 122.45 130.189 122.406C130.322 123.735 130.416 125.171 130.732 126.359C130.565 126.414 130.397 126.463 130.227 126.502ZM131.289 126.146C130.946 125.04 130.851 123.576 130.731 122.244C130.837 122.206 130.941 122.158 131.045 122.114C131.458 123.257 131.741 124.52 132.114 125.702C131.843 125.869 131.569 126.022 131.289 126.146ZM132.644 125.352C132.272 124.202 131.992 122.971 131.603 121.84C131.68 121.797 131.754 121.748 131.83 121.701C132.313 122.722 132.699 123.922 133.23 124.878C133.038 125.047 132.842 125.205 132.644 125.352ZM133.732 124.407C133.192 123.542 132.811 122.353 132.369 121.333C132.598 121.159 132.823 120.964 133.043 120.754C133.555 121.648 134.046 122.572 134.514 123.53C134.259 123.841 134 124.137 133.732 124.407ZM134.958 122.953C134.505 122.02 134.03 121.118 133.536 120.246C133.748 120.008 133.953 119.749 134.152 119.478C134.714 120.185 135.282 120.878 135.828 121.621C135.55 122.091 135.261 122.538 134.958 122.953ZM136.213 120.932C135.683 120.209 135.132 119.531 134.584 118.846C134.849 118.429 135.096 117.98 135.328 117.502C135.872 118.125 136.439 118.688 136.984 119.309C136.742 119.873 136.487 120.418 136.213 120.932ZM137.302 118.527C136.765 117.913 136.205 117.356 135.667 116.746C135.719 116.62 135.765 116.486 135.815 116.357C136.407 116.822 136.993 117.306 137.599 117.715C137.503 117.99 137.405 118.262 137.302 118.527ZM137.874 116.882C137.272 116.487 136.692 116.006 136.108 115.545C136.251 115.114 136.381 114.665 136.498 114.201C137.094 114.607 137.688 115.023 138.298 115.358C138.167 115.876 138.028 116.387 137.874 116.882ZM138.509 114.477C137.895 114.145 137.299 113.73 136.699 113.321C136.747 113.088 136.792 112.853 136.833 112.612C136.833 112.609 136.834 112.605 136.834 112.603C137.484 112.731 138.121 112.972 138.761 113.189C138.685 113.625 138.602 114.055 138.509 114.477ZM138.925 112.162C138.92 112.205 138.911 112.247 138.905 112.29C138.26 112.076 137.618 111.826 136.965 111.684C137.013 111.293 137.046 110.9 137.073 110.506C137.739 110.624 138.397 110.833 139.054 111.068C139.017 111.433 138.976 111.798 138.925 112.162ZM139.131 110.128C138.464 109.891 137.795 109.682 137.118 109.562C137.132 109.024 137.132 108.486 137.111 107.95C137.795 108.272 138.499 108.425 139.197 108.671C139.187 109.157 139.164 109.643 139.131 110.128ZM137.052 106.952C137.026 106.629 136.996 106.308 136.957 105.987C137.689 106.082 138.425 106.047 139.152 106.195C139.182 106.698 139.198 107.206 139.204 107.714C138.483 107.482 137.749 107.34 137.052 106.952ZM140.929 101.486C140.877 101.192 140.816 100.903 140.755 100.613C140.89 100.587 141.026 100.632 141.159 100.794C141.454 101.154 141.736 100.33 141.444 99.9749C141.172 99.644 140.856 99.5928 140.553 99.7123C140.494 99.4682 140.439 99.2235 140.374 98.9832C140.428 98.9723 140.484 98.9803 140.538 99.0221C140.679 99.1292 140.841 99.0913 140.925 98.8523C140.996 98.6466 140.964 98.3105 140.823 98.2038C140.596 98.0312 140.356 98.0142 140.135 98.1208C140.039 97.798 139.939 97.4789 139.833 97.1627C139.943 97.0688 140.063 97.0091 140.185 97.0039C140.548 96.9882 140.549 96.0401 140.185 96.0557C139.96 96.0657 139.743 96.1757 139.547 96.3539C139.405 95.9723 139.259 95.5954 139.102 95.228C139.124 95.21 139.146 95.1915 139.169 95.1777C139.354 95.5826 139.773 95.1374 139.622 94.6235C139.441 94.0101 139.087 94.1542 138.761 94.4619C138.647 94.2172 138.531 93.974 138.409 93.7361C138.701 93.9465 138.945 93.1985 138.651 92.8913C138.431 92.6613 138.211 92.7604 138.005 92.9818C137.865 92.7348 137.726 92.4859 137.578 92.2475C137.586 92.237 137.593 92.2252 137.601 92.2147C137.62 92.1877 137.641 92.164 137.662 92.1389C137.725 92.0659 137.79 92.0768 137.64 92.1086C137.793 92.0773 137.922 91.917 137.922 91.6345C137.922 91.3998 137.793 91.1286 137.64 91.1604C137.447 91.1997 137.303 91.3979 137.16 91.6022C137.068 91.4704 136.975 91.3415 136.881 91.2159C136.951 91.1035 137.024 90.9954 137.1 90.8977C137.222 90.7418 137.286 90.4929 137.201 90.2497C137.13 90.0472 136.937 89.9226 136.814 90.08C136.679 90.253 136.553 90.4426 136.433 90.6427C136.293 90.4739 136.152 90.3089 136.009 90.1511C136.061 90.0629 136.111 89.9747 136.163 89.887C136.421 89.4547 136.022 88.7838 135.764 89.2167C135.682 89.3551 135.602 89.4973 135.523 89.6391C135.347 89.4665 135.171 89.2958 134.991 89.1408C135.062 88.8739 135.129 88.6041 135.181 88.3235C135.288 87.7371 134.742 87.4882 134.636 88.0718C134.595 88.2974 134.543 88.5145 134.488 88.7303C134.267 88.562 134.044 88.4008 133.819 88.2567C133.855 88.1746 133.89 88.0917 133.929 88.012C134.158 87.5441 133.761 86.8695 133.53 87.3417C133.436 87.5332 133.35 87.7295 133.27 87.9291C133.081 87.8267 132.892 87.7295 132.701 87.6437C132.732 87.5261 132.764 87.4085 132.794 87.2905C132.937 86.7353 132.45 86.2522 132.306 86.8117C132.253 87.015 132.2 87.2165 132.146 87.4185C131.97 87.3549 131.794 87.2891 131.616 87.2393C131.668 87.0112 131.72 86.7827 131.767 86.5519C131.885 85.9706 131.338 85.7246 131.222 86.3001C131.167 86.5703 131.106 86.8382 131.045 87.1051C130.842 87.0662 130.638 87.0331 130.433 87.0127C130.453 86.7481 130.471 86.4845 130.474 86.2176C130.48 85.6061 129.915 85.607 129.909 86.2176C129.906 86.4732 129.89 86.7258 129.871 86.9785C129.711 86.9752 129.551 86.9752 129.392 86.9837C129.372 86.6253 129.358 86.2664 129.356 85.9052C129.353 85.2941 128.788 85.2936 128.792 85.9052C128.794 86.284 128.809 86.6595 128.831 87.0345C128.673 87.0553 128.516 87.0767 128.358 87.1084C128.294 86.7349 128.231 86.3613 128.167 85.9877C128.067 85.4008 127.522 85.6506 127.622 86.2394C127.679 86.5756 127.736 86.9112 127.793 87.2469C127.69 87.2763 127.587 87.3 127.483 87.335C127.427 87.0217 127.371 86.7078 127.298 86.4044C127.162 85.8459 126.615 86.0901 126.753 86.6562C126.823 86.9439 126.879 87.2402 126.934 87.536C126.722 87.6252 126.511 87.7209 126.302 87.8295C126.249 87.5109 126.201 87.1895 126.166 86.8619C126.103 86.2603 125.558 86.5163 125.622 87.1136C125.659 87.4611 125.71 87.8025 125.767 88.1405C125.65 88.213 125.531 88.277 125.415 88.3562C125.326 87.984 125.246 87.6048 125.178 87.2175C125.075 86.6329 124.53 86.8818 124.633 87.4692C124.709 87.9025 124.8 88.3273 124.901 88.744C124.802 88.8208 124.701 88.8886 124.603 88.9706C124.484 88.6203 124.363 88.2709 124.231 87.9333C124.032 87.4256 123.543 87.8997 123.743 88.4126C123.871 88.7388 123.989 89.0754 124.104 89.4148C123.945 89.5646 123.787 89.7211 123.632 89.8842C123.52 89.5224 123.406 89.1636 123.29 88.807C123.116 88.2699 122.628 88.7487 122.802 89.2859C122.924 89.6594 123.043 90.0349 123.159 90.4132C123.026 90.5692 122.895 90.7294 122.766 90.8963C122.733 90.9395 122.702 90.9855 122.669 91.0276C122.568 90.784 122.47 90.5351 122.375 90.2833C122.182 89.7671 121.694 90.2426 121.888 90.7626C121.998 91.0566 122.114 91.3453 122.234 91.6273C122.087 91.8412 121.943 92.0588 121.803 92.2821C121.674 91.9943 121.55 91.7004 121.426 91.4045C121.219 90.9077 120.729 91.3808 120.938 91.8834C121.089 92.2441 121.242 92.5997 121.401 92.9486C121.301 93.1236 121.2 93.299 121.103 93.4782C120.932 93.1871 120.758 92.9003 120.652 92.5262C120.586 92.293 120.39 92.2342 120.266 92.3565C120.125 92.4949 120.098 92.7713 120.165 93.005C120.298 93.4744 120.521 93.8299 120.733 94.2002C120.656 94.3562 120.575 94.5074 120.501 94.6667C120.32 94.3832 120.128 94.1205 119.941 93.847C119.667 93.4478 119.266 94.1149 119.541 94.5173C119.749 94.8198 119.963 95.1081 120.16 95.4276C120.108 95.5485 120.056 95.6684 120.005 95.7907C119.788 95.5314 119.572 95.2716 119.356 95.0123C119.23 94.8615 119.042 94.9744 118.969 95.1815C118.886 95.42 118.945 95.6807 119.07 95.8301C119.278 96.0794 119.487 96.3293 119.695 96.5791C119.642 96.7199 119.587 96.8588 119.537 97.0015C119.285 96.7275 119.02 96.4947 118.757 96.2511C118.438 95.9557 118.153 96.7744 118.472 97.0703C118.737 97.3158 119.005 97.551 119.258 97.8288C119.236 97.8966 119.212 97.9606 119.191 98.0279C118.898 97.8184 118.61 97.5865 118.336 97.3144C118.021 97.0034 117.737 97.8226 118.05 98.1336C118.336 98.4171 118.636 98.6518 118.94 98.8718C118.888 99.0533 118.832 99.2321 118.782 99.416C118.497 99.2155 118.221 98.9799 117.948 98.7319C117.628 98.4408 117.343 99.2591 117.663 99.5507C117.93 99.7948 118.202 100.021 118.481 100.225H116.378C117.077 98.4176 117.762 96.5957 118.57 94.9018C120.096 91.7027 121.871 88.8222 123.975 86.7173C128.015 82.6748 132.877 83.9406 136.551 88.4392C139.116 91.5785 140.974 96.3625 142.003 101.488H140.929V101.486H140.929ZM144.857 105.174C143.199 90.6891 135.855 77.8558 126.488 81.0099C121.659 82.636 117.992 89.5528 115.282 95.9804C114.6 97.597 114 99.3003 113.351 100.953C113 101.847 112.645 102.831 111.997 103.113C111.162 103.477 110.032 103.144 109.196 102.971C109.035 102.937 108.872 102.908 108.712 102.875C111.448 101.897 113.531 98.6262 115.313 94.541C116.467 91.8928 117.484 89.0858 118.751 86.5765C120.285 83.5358 122.221 81.5313 124.42 80.0816C129.482 76.7427 135.249 77.6264 139.859 82.425C144.936 87.7091 146.552 96.6417 148.814 105.212C147.565 105.778 146.106 105.557 144.857 105.174ZM153.653 93.8859C152.846 96.2349 152.698 99.0159 152.705 101.777C152.677 101.765 152.649 101.752 152.622 101.737C152.6 101.723 152.486 101.651 152.456 101.629C152.375 101.565 152.295 101.496 152.214 101.428C152.079 101.315 151.936 101.242 151.793 101.211C151.4 100.784 150.979 100.444 150.537 100.174C150.427 100.079 150.318 99.9858 150.209 99.8849C150.153 99.8365 150.099 99.8304 150.049 99.8389C150.01 99.8024 149.971 99.7663 149.932 99.7299C149.916 99.7151 149.901 99.7142 149.886 99.7038C149.233 96.9954 148.592 94.2798 147.806 91.67C146.441 87.143 144.413 83.3893 142.022 80.33C137.654 74.7416 131.842 73.2397 126.55 75.0654C126.177 75.1938 125.803 75.3517 125.429 75.5224C125.077 67.7598 125.112 59.9565 125.283 52.1815C125.289 51.9151 125.263 51.6823 125.219 51.4737C125.204 51.2884 125.179 51.1007 125.129 50.9086C123.063 43.0494 120.888 35.2688 119.405 27.0255C119.271 26.2783 118.956 25.8753 118.603 25.7454C118.515 25.6933 118.42 25.6516 118.316 25.6336C114.558 24.9779 110.305 25.6416 106.835 22.7322C105.835 21.894 104.932 23.6348 105.16 24.9812C105.18 25.3055 105.253 25.6222 105.393 25.8967C105.404 25.973 105.416 26.0844 105.433 26.5172C105.476 27.5763 105.451 28.6463 105.426 29.7064C105.351 32.8566 105.159 36.0007 104.965 39.1353C104.535 46.0716 103.981 52.9832 103.518 59.9128C103.006 67.5929 102.754 75.5361 103.137 83.2333C103.249 85.4676 103.34 88.3235 104.061 90.3544C89.8042 88.9095 75.4782 90.6275 61.2612 87.8968C61.1242 87.8698 61.0042 87.8902 60.8932 87.9305C59.9871 86.4073 59.0002 85.0168 57.9481 83.7647C58.0653 83.366 58.1057 82.9114 58.0119 82.479C57.7326 81.191 57.377 79.8038 56.7457 78.885C55.7998 77.5102 54.5751 77.843 53.7803 79.3947C53.7281 79.4966 53.6823 79.6047 53.6422 79.7175C52.9542 79.2226 52.2509 78.7784 51.532 78.392C52.9632 75.4228 54.9403 72.95 57.3019 74.0025C60.4896 75.4228 60.7206 81.2076 62.2159 85.1002C62.3009 85.3216 62.4 85.4937 62.5074 85.6279C62.6797 85.9028 62.9062 86.102 63.1915 86.1574C64.9539 86.5011 66.7108 86.8439 68.4873 86.8685C68.5306 86.8695 68.5687 86.8562 68.6096 86.8501C69.1243 86.9961 69.6908 86.6339 69.8829 85.5558C70.656 81.2156 71.9705 75.0023 75.1311 74.5117C78.9503 73.9186 81.4921 79.8446 83.2147 84.6242C83.2223 84.6731 83.2339 84.7219 83.2542 84.7722C83.413 85.1647 83.5985 85.5496 83.8155 85.8317C83.9426 86.1897 84.1643 86.4651 84.4984 86.5642C88.4914 87.7461 92.5377 88.1571 96.5496 89.0925C97.0134 89.201 97.6062 89.0564 97.826 88.2211C100.273 78.9054 99.4229 68.0746 99.4628 58.1801C99.5057 47.2734 99.2001 35.3925 101.141 24.8736C101.167 24.7319 101.18 24.5977 101.187 24.4673C101.286 23.9672 101.301 23.4926 101.174 22.9986C101.168 22.9759 101.159 22.955 101.153 22.9327C101.148 22.8929 101.139 22.8554 101.133 22.817C101.451 22.1951 101.723 21.5091 102.065 20.9193C102.319 20.4813 101.92 19.81 101.665 20.249C101.348 20.797 101.092 21.4304 100.802 22.0163C100.647 21.8096 100.491 21.6058 100.336 21.4C100.612 20.7889 100.931 20.2286 101.339 19.8716C101.663 19.5886 101.377 18.7703 101.054 19.0529C100.584 19.4639 100.213 20.1105 99.8938 20.815C99.7283 20.5969 99.5636 20.3774 99.3981 20.1594L100.505 18.3014C100.763 17.8686 100.363 17.1982 100.106 17.6311L98.9513 19.5686C98.8448 19.4297 98.7403 19.2866 98.6335 19.1486C98.664 19.1259 98.6945 19.0969 98.7228 19.0491C99.0936 18.4261 99.4656 17.8027 99.8367 17.1793C100.094 16.7469 99.6947 16.0766 99.4373 16.5089L98.4349 18.191C98.3417 16.5478 98.29 14.9013 98.3897 13.2624C99.3563 13.5094 100.321 13.7811 101.296 13.8901C101.964 15.3441 102.705 16.6952 103.395 18.1246C103.495 18.3313 103.623 18.474 103.764 18.5641C103.927 18.7878 104.132 18.9481 104.382 18.996C106.326 19.3691 108.278 19.426 110.231 19.5459C111.699 19.636 113.158 20.0333 114.627 19.9716C115.857 19.9209 117.085 19.7801 118.316 19.7464C119.328 19.7185 120.614 19.5549 121.568 20.2499C122.011 20.5728 121.667 21.6849 121.449 22.589C121.211 23.5746 121.009 24.7518 121.181 25.8208C121.561 28.1827 122.399 30.2416 123.197 32.2555C125.387 37.7814 126.766 43.9714 128.148 50.1567C128.342 51.0205 128.778 51.4107 129.215 51.4387C129.371 51.5084 129.541 51.5302 129.726 51.4813C132.013 50.8721 134.372 51.9175 136.589 52.7723C138.659 53.5701 140.725 54.1542 142.831 54.605C145.189 55.1095 147.547 55.5646 149.874 56.3918C151.787 57.0712 153.565 57.7079 154.498 60.8245C155.246 63.3262 155.254 66.5182 155.338 69.2479C155.415 71.7298 155.617 74.2381 155.584 76.7185C155.553 79.0571 155.408 81.8371 155.934 84.0563C156.041 84.5095 156.177 84.8712 156.332 85.1723C156.148 88.7013 154.722 90.7816 153.653 93.8859ZM155.017 104.748C155.011 104.135 155.006 103.53 155.006 102.932C155.363 103.572 155.737 104.182 156.124 104.772C155.755 104.773 155.386 104.768 155.017 104.748ZM156.961 104.757C156.273 103.76 155.613 102.709 155.022 101.553C155.037 100.851 155.067 100.159 155.12 99.4748C155.976 101.333 156.896 103.139 157.931 104.717C157.607 104.731 157.283 104.748 156.961 104.757ZM158.947 104.674C158.883 104.677 158.818 104.68 158.754 104.683C157.426 102.825 156.288 100.525 155.249 98.2133C155.289 97.898 155.337 97.5851 155.391 97.2732C156.548 99.397 157.801 101.361 159.047 103.339C159.014 103.783 158.982 104.229 158.947 104.674ZM159.132 102.169C157.92 100.247 156.711 98.3218 155.597 96.2383C155.688 95.8424 155.794 95.4484 155.914 95.0564C157.074 96.7422 158.118 98.6423 159.25 100.382C159.212 100.978 159.173 101.574 159.132 102.169ZM159.319 99.2311C158.266 97.5808 157.281 95.8059 156.19 94.2239C156.272 94.0025 156.358 93.7811 156.451 93.5611C156.503 93.4388 156.551 93.3231 156.6 93.2032C157.555 94.5771 158.493 95.9827 159.414 97.4192C159.383 98.0232 159.354 98.6281 159.319 99.2311ZM159.477 96.2292C158.639 94.9355 157.788 93.6654 156.923 92.4229C157.084 92.0256 157.235 91.6373 157.379 91.2505C158.084 92.3849 158.809 93.4834 159.548 94.5538C159.525 95.1123 159.503 95.6708 159.477 96.2292ZM159.594 93.3653C158.941 92.4072 158.301 91.4235 157.676 90.4128C157.738 90.2265 157.793 90.0378 157.849 89.8495C158.484 90.6081 159.05 91.5131 159.621 92.4072C159.611 92.7263 159.605 93.0463 159.594 93.3653ZM159.657 91.1708C159.157 90.3905 158.65 89.6277 158.09 88.9763C158.18 88.6189 158.26 88.2552 158.329 87.8802C158.784 88.4766 159.239 89.0744 159.69 89.677C159.68 90.1748 159.67 90.6726 159.657 91.1708ZM159.713 88.5032C159.303 87.9599 158.892 87.4208 158.48 86.8813C158.493 86.7714 158.508 86.6623 158.52 86.5495C158.925 86.5983 159.338 86.6196 159.735 86.6941C159.731 87.2966 159.722 87.9001 159.713 88.5032Z" fill="#F18701"/>
<path d="M6.34546 13.7853C6.23616 13.9526 6.14916 14.1437 6.07149 14.3442C5.54162 14.7856 5.19393 15.9305 5.42101 16.8768C5.50885 17.2423 5.6368 17.5931 5.79243 17.9126C5.90259 18.4626 6.21102 18.8423 6.5525 18.9907C6.61407 19.049 6.67621 19.1049 6.73919 19.1533C7.5018 19.7374 8.50562 19.726 9.09424 18.5735C9.82775 17.137 9.54192 15.354 8.8454 14.055C8.16922 12.7921 7.0931 12.6418 6.34546 13.7853Z" fill="#F18701"/>
</svg>
